<?xml version="1.0" encoding="utf-8"?>
<!-- Generator: Adobe Illustrator 21.1.0, SVG Export Plug-In . SVG Version: 6.00 Build 0)  -->
<svg version="1.1" id="Layer_1" xmlns="http://www.w3.org/2000/svg" xmlns:xlink="http://www.w3.org/1999/xlink" x="0px" y="0px"
	 viewBox="0 0 553.2185059 253.4865112" style="enable-background:new 0 0 553.2185059 253.4865112;" xml:space="preserve">
<style type="text/css">
	.st0{fill:#FFD097;}
	.st1{fill:#6CB584;}
	.st2{fill:#459B55;}
</style>
<g>
	<path class="st0" d="M462.5964966,82.3065186v64.4221191h52.2510376c6.1542969,0,11.1671753-5.0128174,11.1671753-11.1672363
		c0-6.1543579-5.0128784-11.1671753-11.1671753-11.1671753h-31.0200806c-5.9309692,0-10.7536011-4.8225708-10.7536011-10.7536621
		v-2.4815674c0-3.7058716,1.8860474-6.9815674,4.7398682-8.9172363c0.703186-0.4714966,1.4641113-0.8685303,2.2664795-1.1580811
		c1.1748047-0.4384155,2.4319458-0.6783447,3.7472534-0.6783447h55.8361206c6.1542969,0,11.1671753-5.0128174,11.1671753-11.1671753
		c0-6.1544189-5.0128784-11.1672363-11.1671753-11.1672363h-93.8873901c-5.9309692,0-10.7536011-4.8225708-10.7536011-10.7536011
		c0-3.7058716,1.8860474-6.9816284,4.7398682-8.9172363c0.703186-0.4714966,1.4641113-0.8685303,2.2664795-1.1580811
		c1.1748047-0.4384155,2.4319458-0.6783447,3.7472534-0.6783447h50.0457153c6.1542969,0,11.1671753-5.0128174,11.1671753-11.1671753
		c0-6.1544189-5.0128784-11.1672363-11.1671753-11.1672363H384.90802v48.0772705H462.5964966z"/>
	<path class="st0" d="M83.8067017,171.2307129v-55.5612793H39.2920532c-6.1543579,0-11.1672363,5.0128174-11.1672363,11.1672363
		c0,6.1543579,5.0128784,11.1671753,11.1672363,11.1671753h31.0200195c5.9309692,0,10.7536621,4.8225708,10.7536621,10.7536621
		v2.4815674c0,3.7058716-1.8860474,6.9816284-4.7398682,8.9172363c-0.703186,0.4714966-1.4641724,0.8685303-2.2665405,1.1580811
		c-1.1747437,0.4384155-2.4318848,0.6783447-3.7472534,0.6783447H14.4760132
		c-6.1542969,0-11.1672363,5.0128174-11.1672363,11.1671753c0,6.1544189,5.0129395,11.1672363,11.1672363,11.1672363h93.8873291
		c5.9309692,0,10.7536621,4.8225708,10.7536621,10.7536011c0,3.7058716-1.8860474,6.9816284-4.7398682,8.9172363
		c-0.703186,0.4714966-1.4641724,0.8685303-2.2665405,1.1580811c-1.1747437,0.4384155-2.4318848,0.6783447-3.7472534,0.6783447
		H58.317688c-6.1543579,0-11.1672363,5.0128174-11.1672363,11.1671753c0,6.1544189,5.0128784,11.1672363,11.1672363,11.1672363
		h103.1774902v-56.9381104H83.8067017z"/>
	<rect x="384.90802" y="162.545105" class="st1" width="54.5267944" height="7.4447632"/>
	<rect x="384.90802" y="116.2218018" class="st1" width="54.5267944" height="7.4448242"/>
	<path class="st1" d="M459.2876587,85.6153564H384.90802v27.2976685h57.8356323v14.0623779H384.90802v9.0992432h57.8356323
		v14.062439H384.90802v9.0991821h57.8356323v14.062439H373.258728v-2.0679932h-17.4733276
		c-0.0025635,0.0415039-0.0026855,0.0824585-0.0054321,0.1239624c-0.0330811,0.5046997-0.0744629,1.0174561-0.1157837,1.5221558
		c-0.0496216,0.5377808-0.1075439,1.0671387-0.1654663,1.6047363c-0.0165405,0.0827637-0.0248413,0.1653442-0.0331421,0.2481689
		c-0.0661011,0.4798584-0.1240234,0.9512329-0.1984863,1.4227905c-0.0827026,0.5458374-0.1737061,1.0919189-0.2729492,1.6295166
		c-0.1903076,1.0836792-0.421875,2.1591187-0.6865845,3.2262573c-0.1323853,0.5292969-0.2647095,1.0668945-0.4136353,1.5964355
		c-0.1488647,0.52948-0.2977295,1.0588379-0.4631958,1.579834c-0.1571655,0.5212402-0.3309326,1.0505981-0.5045776,1.5635376
		c-0.3143311,0.9263916-0.6535034,1.8363647-1.0175171,2.737915c-0.0164795,0.0330811-0.0247803,0.0745239-0.0413208,0.107605
		c-0.0910034,0.2233887-0.1819458,0.4467163-0.281311,0.6618042c-0.1157227,0.2976685-0.2481079,0.5955811-0.3804321,0.8934326
		c-0.4632568,1.0586548-0.9678345,2.1009521-1.4972534,3.1266479c-0.0083008,0.0166016-0.0165405,0.0331421-0.0248413,0.0496826
		l0.0165405,0.0083008l-0.6617432,1.1911011l-0.1240845,0.2233887c-0.5955811,1.0671387-1.2325439,2.109375-1.9025269,3.1351318
		c-0.3143921,0.4880981-0.6369629,0.9679565-0.9678345,1.4393311c-0.6535034,0.9431152-1.3400879,1.8612061-2.0515137,2.7546387
		c0,0.0082397-0.0082397,0.0165405-0.0164795,0.0248413c-0.3474731,0.4384155-0.703186,0.8685913-1.0671387,1.2987671
		c0,0.0080566-0.0083008,0.0163574-0.0083008,0.0163574c-0.3721924,0.4384155-0.7444458,0.8685913-1.1332397,1.2904663
		c-0.28125,0.3144531-0.5625,0.6204224-0.8519897,0.9265747c-0.1654663,0.1902466-0.3474121,0.3721924-0.5211182,0.5541382
		c-0.2647095,0.2730713-0.5294189,0.5292969-0.7941284,0.7940674c-0.1075439,0.1157227-0.2233276,0.2233887-0.3391724,0.3309937
		c-0.3391724,0.3308105-0.6782837,0.6533203-1.0256958,0.9677734c-0.0414429,0.0496826-0.0910645,0.0908813-0.140686,0.1322632
		c-0.3474121,0.3227539-0.703064,0.6452637-1.0587769,0.9431763c-0.1158447,0.1157227-0.2316284,0.2150269-0.3557129,0.314209
		c-0.2895508,0.2564697-0.5872803,0.5046997-0.8850708,0.736145c-0.2068481,0.1821289-0.421875,0.355835-0.6369629,0.5129395
		c-0.2398682,0.2067871-0.4880371,0.3970337-0.7362671,0.5789795c-0.421814,0.3392944-0.8519897,0.6535645-1.2821045,0.9597168
		c-0.3474121,0.2562866-0.6865845,0.4962158-1.0422974,0.736084c-0.3721924,0.2647705-0.7444458,0.5130005-1.125,0.7529297
		c-0.2894897,0.1983032-0.5872803,0.3885498-0.8850708,0.5706787c-1.9191284,1.2077026-3.9126587,2.2913818-5.9641113,3.2508545
		c-0.3309326,0.1488647-0.6618042,0.2979126-0.9926758,0.4467163c-0.7362061,0.3308105-1.4724121,0.6369629-2.2251587,0.9263916
		c-0.3887939,0.1571045-0.7775879,0.3061523-1.1746216,0.4467163c-0.1489258,0.0579224-0.3060303,0.1159058-0.4550171,0.1654053
		c-0.3556519,0.1242065-0.7196045,0.2481689-1.0836182,0.3641357c-0.173645,0.06604-0.3556519,0.1239624-0.5376587,0.1819458
		c-0.4549561,0.1488037-0.9099121,0.2893677-1.3731689,0.421875c-0.0661011,0.0246582-0.1323242,0.0411987-0.2067871,0.0577393
		c-0.3721924,0.107666-0.7444458,0.2150879-1.125,0.3144531c-0.2564087,0.0745239-0.5211182,0.140564-0.7858276,0.1985474
		c-0.3804932,0.0993042-0.7692871,0.1901855-1.1580811,0.2730103c-0.0744629,0.0246582-0.1654053,0.0411987-0.2481689,0.0577393
		c-0.4797363,0.107666-0.9595337,0.2068481-1.4393311,0.2979126c-0.1488647,0.0331421-0.2977905,0.06604-0.4466553,0.0825806
		c-0.3722534,0.0745239-0.7445068,0.1407471-1.1166992,0.1987305c-0.24823,0.0494995-0.4963989,0.0825806-0.7528076,0.1157227
		c-0.3308716,0.0579834-0.6700439,0.107666-1.0009155,0.1488647c-0.3143311,0.0413818-0.6286621,0.0827637-0.9512329,0.107605
		c-0.8355103,0.0991821-1.6792603,0.1819458-2.53125,0.2316284c-0.5956421,0.0411987-1.1829224,0.0743408-1.7785034,0.0908813
		c-0.6204224,0.0248413-1.2408447,0.0331421-1.8612061,0.0331421c-19.0835571,0-36.5209351-9.6699219-46.6541138-25.8583374
		l-0.421936-0.6866455l-0.4301147-0.6864014l0.0165405-0.0166016c-4.3735352-7.4483032-6.9001465-15.8148193-7.4159546-24.4520874
		h-45.5994263v40.9464722h38.4649048v38.0512695h220.4491577V85.6153564z M442.7436523,219.6219482H373.258728v-14.0623779
		h69.4849243V219.6219482z M442.7436523,196.4603271H373.258728v-14.062439h69.4849243V196.4603271z"/>
	<rect x="376.5675049" y="208.8683472" class="st1" width="62.8673096" height="7.4448242"/>
	<rect x="376.5675049" y="185.7067261" class="st1" width="62.8673096" height="7.4448242"/>
	<polygon class="st1" points="235.5296631,215.4859619 197.0648193,215.4859619 197.0648193,171.2307129 164.8039551,171.2307129 
		164.8039551,250.2284546 235.5296631,250.2284546 	"/>
	<rect x="384.90802" y="139.3834229" class="st1" width="54.5267944" height="7.4448242"/>
	<path class="st2" d="M291.1755371,181.0496826c-0.0496216-0.0248413-0.0992432-0.0413818-0.140625-0.0662231
		c-0.3556519-0.1737061-0.703125-0.355896-1.0422974-0.5375977c-3.8695679-2.1161499-7.0514526-5.3314819-9.1448364-9.2151489
		h-31.5606079c0.5085449,7.9934692,2.852356,15.7399902,6.8811646,22.6486816
		c10.687439-6.7581787,22.6157227-11.0927124,35.081604-12.796814
		C291.2251587,181.0743408,291.2003174,181.0577393,291.1755371,181.0496826z"/>
	<path class="st2" d="M259.7253418,199.2149658c0.0165405,0.0246582,0.0330811,0.0411987,0.0496216,0.06604
		s0.0413208,0.0496826,0.0579224,0.0745239c0.0248413,0.0331421,0.0578613,0.0745239,0.0827026,0.1074829
		c0.2647095,0.3640747,0.5542603,0.7197266,0.84375,1.0753784c0.3474731,0.4301758,0.703125,0.8520508,1.0588379,1.265625
		c0.2647095,0.3227539,0.5458984,0.6286621,0.8354492,0.9431152c0.4467163,0.487915,0.9016113,0.9677734,1.3565674,1.4393311
		c0.2978516,0.31427,0.6039429,0.6204224,0.9182739,0.90979c0.0744019,0.0745239,0.140564,0.140564,0.2150269,0.2068481
		c0.3639526,0.355835,0.7279053,0.703186,1.1084595,1.0339966c0.3887329,0.3638916,0.7858276,0.7114868,1.1828613,1.0422363
		c0.3970947,0.3475952,0.8024292,0.6784058,1.2160645,1.0009155c0.4135742,0.3309937,0.8271484,0.6452026,1.2407837,0.9596558
		c0.421814,0.31427,0.843689,0.6287231,1.2738647,0.9263916c0.3391113,0.2481689,0.6865845,0.4797974,1.0339966,0.7114868
		c0.1489258,0.0991211,0.2977905,0.1984863,0.4466553,0.2893677c0.3722534,0.2564697,0.7528076,0.4963989,1.1333008,0.7197876
		c0.4467163,0.2811279,0.8933716,0.5458374,1.3483276,0.8023682c0.4384155,0.2647705,0.8851318,0.5127563,1.3400879,0.7445679
		c0.0165405,0.0163574,0.0330811,0.0246582,0.0578613,0.032959c0.3805542,0.2067871,0.7611084,0.3970337,1.1415405,0.59552
		c0.1737671,0.0828247,0.3557129,0.1737061,0.5377197,0.2564697c0.2977905,0.1571655,0.6038208,0.2979126,0.9099121,0.4301758
		c0.1323853,0.0662231,0.2647095,0.1325073,0.3970947,0.1902466c0.3970337,0.1819458,0.8023682,0.3639526,1.2076416,0.5212402
		c0.0083008,0.0083008,0.0166016,0.0163574,0.0248413,0.0163574c0.4136353,0.1821899,0.8272095,0.3475952,1.2490845,0.5129395
		c0.2316284,0.0911255,0.4714966,0.1737061,0.703125,0.2647705c0.421875,0.1571655,0.84375,0.3059692,1.2738647,0.4550171
		c0.3887939,0.140564,0.7858887,0.2728271,1.1829224,0.3887939c0.4963379,0.1653442,1.0009155,0.314209,1.5054932,0.4549561
		c0.4384155,0.1323242,0.8851318,0.2479858,1.3318481,0.3556519c0.3060303,0.0825806,0.6121216,0.1571045,0.9264526,0.2233887
		c0.3391113,0.0908813,0.6948242,0.1654053,1.0422363,0.2396851c0.4384155,0.0993652,0.8768311,0.1821899,1.3235474,0.2647705
		c0.4549561,0.0910645,0.9181519,0.1654053,1.3814087,0.2399292c0.3970337,0.0662231,0.8024292,0.1242065,1.2077026,0.173645
		c0.6618042,0.0911255,1.3317871,0.1738892,2.0101318,0.2316895c0.5458984,0.0579224,1.1001587,0.0993652,1.6544189,0.1324463
		c1.1083984,0.0743408,2.2251587,0.1074219,3.3418579,0.1074219c1.1332397,0,2.2665405-0.0413818,3.3915405-0.1074219
		c0.6286621-0.0413818,1.2573242-0.0993652,1.8859863-0.1655884c0.5541992-0.0577393,1.1084595-0.1240234,1.6544189-0.1985474
		c0.5459595-0.0742798,1.0919189-0.1571045,1.6295776-0.2481689c0.7362061-0.1157227,1.4724121-0.2562866,2.2086182-0.4216919
		c0.3887939-0.0745239,0.7692871-0.1655884,1.1498413-0.2564697c0.1240845-0.0248413,0.2481689-0.0579834,0.3721924-0.0910645
		c0.4467163-0.1074829,0.8934326-0.2233887,1.3318481-0.3473511c0.0496216-0.0083008,0.0992432-0.0248413,0.1488647-0.0414429
		c0.5128784-0.1322632,1.0174561-0.2811279,1.5137939-0.4467163c0.0082397,0.0083008,0.0165405,0,0.0248413-0.0083008
		c0.5376587-0.1571045,1.0753174-0.3307495,1.6047363-0.5209961c0.4466553-0.1488647,0.8933716-0.3144531,1.3317871-0.4881592
		c0.3309326-0.1157227,0.6617432-0.2481689,0.9926758-0.3887329c0.1571655-0.0496826,0.3060303-0.1157227,0.4631958-0.1819458
		c0.2895508-0.1159668,0.5708008-0.2399292,0.8520508-0.3639526c0.2729492-0.1159058,0.5459595-0.2316284,0.8106689-0.355835
		c0.3970337-0.1819458,0.8023682-0.3638916,1.1911621-0.562439c0.4962769-0.2316284,0.984375-0.4796143,1.4723511-0.7443848
		c0.4384766-0.2233887,0.8686523-0.4550171,1.2904663-0.703186c0.1158447-0.0579834,0.2399292-0.1240234,0.3557129-0.1985474
		c0.2977905-0.1654053,0.5955811-0.3390503,0.8768311-0.5129395c0.2647095-0.1571655,0.5294189-0.31427,0.7858276-0.4796753
		c0.1737061-0.107605,0.3474731-0.2150879,0.5211182-0.3309937c0.24823-0.1571045,0.4963989-0.314209,0.7445068-0.487915
		c0.3143311-0.1985474,0.6121216-0.4053345,0.9182129-0.6204224c0.1075439-0.0662231,0.2067871-0.140564,0.3060303-0.2150879
		c0.2978516-0.2067871,0.5956421-0.4135742,0.8851318-0.6369019c0.2977905-0.2150879,0.5873413-0.4301758,0.8768311-0.6618042
		c0.0909424-0.0743408,0.1903076-0.140564,0.28125-0.2233887c0.28125-0.2067871,0.5541992-0.4301758,0.8272095-0.6616211
		c0.28125-0.2233276,0.5625-0.4549561,0.8355103-0.6948853c0.0247803-0.0166016,0.0496216-0.0414429,0.0744019-0.0579834
		c0.4053345-0.3390503,0.8024292-0.6947021,1.1911621-1.0505371c0.0165405-0.0083008,0.0248413-0.0248413,0.0330811-0.0331421
		c0.3805542-0.3390503,0.7527466-0.6864624,1.1167603-1.0422974c0.1075439-0.1074219,0.2067871-0.2067871,0.3060303-0.3059082
		c0.2647095-0.24823,0.5294189-0.5130005,0.7775879-0.7775269c0.1654663-0.1656494,0.3226318-0.3310547,0.4714966-0.4963989
		c0.28125-0.2813721,0.5459595-0.5707397,0.8106689-0.8686523c0.0165405-0.0165405,0.0330811-0.0413818,0.0496216-0.0579224
		c0.3391724-0.3639526,0.6700439-0.7443848,0.9926758-1.1248779c0.0826416-0.0911255,0.1571655-0.1902466,0.2315674-0.281311
		c0.3143311-0.3556519,0.6121826-0.7196045,0.8933716-1.0834961c0.3391724-0.4301758,0.6783447-0.8685913,1.0175171-1.3153076
		c0.0082397-0.0166016,0.0164795-0.0331421,0.0247803-0.0496826c0.0083008-0.0083008,0.0165405-0.0083008,0.0165405-0.0166016
		c0.6617432-0.8766479,1.2904663-1.7866821,1.8859863-2.7132568c0.0083008-0.0165405,0.0248413-0.0330811,0.0248413-0.0496826
		c0.1158447-0.1653442,0.2233276-0.3390503,0.3226318-0.5127563c0.1819458-0.2893677,0.3474121-0.5872803,0.5293579-0.8851318
		c-0.1240234-0.06604-0.2315674-0.1322632-0.3639526-0.2067871c-12.6231079-7.0477905-26.9088135-10.7619019-41.4593506-10.7619019
		c-16.0311279,0-31.5576782,4.4421387-45.0410767,12.8712769c-0.1157837,0.0745239-0.2398682,0.1488647-0.3557129,0.2233887
		c-0.0165405,0.0082397-0.0247803,0.0165405-0.0413818,0.0248413c0.281311,0.4467163,0.5873413,0.8851318,0.9099731,1.3151245
		C259.1132202,198.4124146,259.4109497,198.8179321,259.7253418,199.2149658z"/>
	<path class="st2" d="M350.1798096,183.4898682c0.0744629-0.2233276,0.140625-0.4467163,0.2150269-0.6783447
		c0.1158447-0.3887939,0.2233887-0.7775269,0.3309326-1.1745605c0.1240845-0.4550171,0.2481079-0.9017334,0.3556519-1.3567505
		c0.140625-0.5541382,0.2647095-1.1165771,0.3805542-1.6791992c0.1075439-0.4879761,0.1985474-0.9760742,0.2894897-1.4639893
		c0.1820068-1.0176392,0.3391724-2.043335,0.4549561-3.0773926c0.0662231-0.4961548,0.1158447-1.0008545,0.1654663-1.5053101
		c0.0374756-0.4371338,0.0655518-0.8807373,0.0936279-1.3236084h-31.5474854
		c-0.0016479,0.0027466-0.0027466,0.0054932-0.0045776,0.0082397c-0.1158447,0.2150879-0.2399292,0.4301758-0.3722534,0.6535645
		c-0.1241455,0.2233276-0.2564697,0.4301147-0.388855,0.6452026c-0.1323242,0.2150879-0.2728882,0.421875-0.4135742,0.6287231
		c-0.140625,0.2067871-0.281189,0.4135742-0.4301147,0.6121216c-0.140625,0.1984863-0.2895508,0.3970337-0.4467163,0.59552
		c-0.1571655,0.1985474-0.3143311,0.3887939-0.4714355,0.5872803c-0.3143921,0.3804932-0.6535645,0.7444458-0.9926758,1.1085205
		c-0.1737061,0.1737061-0.3391724,0.3556519-0.5128784,0.5293579c-0.0661621,0.0662231-0.140625,0.1242065-0.1985474,0.1902466
		c-0.2233276,0.2233276-0.4632568,0.4384155-0.703125,0.6535034c-0.2315674,0.2150879-0.4797974,0.421875-0.7196655,0.6286621
		c-0.1654053,0.1322632-0.3308716,0.2647705-0.5045776,0.3970337c-0.6699829,0.5210571-1.3731689,1.0174561-2.1010742,1.4558716
		c-0.3804932,0.2316895-0.7527466,0.4467773-1.1497803,0.6618042c-0.0248413,0.0083008-0.0579224,0.0248413-0.0827637,0.0411987
		c12.4493408,1.1333618,24.5182495,4.8806152,35.3959961,11.0266724c0.0081787-0.0165405,0.0164795-0.0330811,0.0247803-0.0496826
		c0.4631958-0.9014893,0.9016724-1.8115234,1.3152466-2.737854c0.4053345-0.9182739,0.7858276-1.8612061,1.1415405-2.8043213
		c0-0.0083008,0.0082397-0.0248413,0.0082397-0.032959c0.1903076-0.5129395,0.3722534-1.0258789,0.5377197-1.5386353
		C349.9730225,184.159729,350.0805664,183.8289795,350.1798096,183.4898682z"/>
	<path class="st2" d="M311.5825806,176.6903076c0.2977905-0.1902466,0.5873413-0.3970337,0.8685303-0.6123047
		c0.0166016-0.0081177,0.0331421-0.0246582,0.0496216-0.032959c0.281311-0.2067871,0.5542603-0.421875,0.8189697-0.6452026
		c0.2729492-0.2316895,0.5542603-0.4798584,0.8189697-0.7280884c0.2729492-0.2396851,0.5294189-0.5044556,0.7775269-0.7692261
		c0.2647095-0.2647705,0.5128784-0.5375977,0.7362061-0.8189087c0.2481689-0.281311,0.4797974-0.562439,0.6865845-0.8520508
		c0.0413208-0.0496826,0.0827637-0.1074219,0.1323853-0.1571045c0.140625-0.1819458,0.2729492-0.3721924,0.4053345-0.5707397
		c0-0.0082397,0.0082397-0.0082397,0.0082397-0.0165405c0.0496216-0.0745239,0.1075439-0.1490479,0.1571655-0.2233887
		c0.0071411-0.010498,0.0137939-0.022522,0.0209351-0.0330811h-32.3654785
		c3.4871826,5.2304688,9.4354858,8.6856079,16.1810303,8.6856079c0.3226318,0,0.6369629-0.0083008,0.9512939-0.0248413h0.0744019
		c0.3143311-0.0165405,0.6204224-0.0413818,0.9182739-0.0745239c0.3391113-0.0328979,0.6782837-0.0743408,1.0091553-0.1240234
		c0.3060303-0.0496826,0.6203613-0.0993652,0.9181519-0.1654053c0.9595947-0.1902466,1.8943481-0.4632568,2.8042603-0.7940674
		c0.2895508-0.0993652,0.5790405-0.2150879,0.8602295-0.3392944c0.0744629-0.0328979,0.1571655-0.06604,0.2316284-0.0991211
		c0.2150879-0.0911255,0.4384766-0.1902466,0.6535034-0.2979126c0.1488647-0.0742798,0.2978516-0.1488037,0.4384155-0.2233276
		c0.2895508-0.1488647,0.5708008-0.2976685,0.843811-0.4630737c0.0247803-0.0083008,0.0496216-0.0248413,0.0661011-0.0414429
		c0.28125-0.1572876,0.5542603-0.3226929,0.8189087-0.5046387
		C311.5081787,176.7480469,311.5494995,176.7234497,311.5825806,176.6903076z"/>
	<path d="M462.5964966,150.0374756h52.2510376c7.9824219,0,14.4760132-6.4935303,14.4760132-14.4760742
		c0-7.9824219-6.4935913-14.4760132-14.4760132-14.4760132h-31.0200806c-4.1029053,0-7.4448242-3.3418579-7.4448242-7.4448242
		v-2.4815674c0-4.1029053,3.3419189-7.4448242,7.4448242-7.4448242h55.8361206
		c7.9824219,0,14.4760132-6.4935303,14.4760132-14.4760132s-6.4935913-14.4760132-14.4760132-14.4760132h-93.8873901
		c-4.1029053,0-7.4448242-3.3419189-7.4448242-7.4448242s3.3419189-7.4448242,7.4448242-7.4448242h50.0457153
		c7.9824219,0,14.4760132-6.4935303,14.4760132-14.4760132s-6.4935913-14.4760132-14.4760132-14.4760132H384.90802V0H83.8067017
		v112.3606567H39.2920532c-7.9824219,0-14.4760132,6.4934692-14.4760132,14.4760132
		c0,7.9824219,6.4935913,14.4760132,14.4760132,14.4760132h31.0200195c4.1029053,0,7.4448242,3.3418579,7.4448242,7.4448242
		v2.4815674c0,4.1029053-3.3419189,7.4448242-7.4448242,7.4448242H14.4760132C6.4935913,158.6838989,0,165.1774292,0,173.1599121
		s6.4935913,14.4760742,14.4760132,14.4760742h93.8873291c4.1029053,0,7.4448242,3.3418579,7.4448242,7.4447632
		s-3.3419189,7.4448242-7.4448242,7.4448242H58.317688c-7.9824219,0-14.4760132,6.4935303-14.4760132,14.4760132
		s6.4935913,14.4760742,14.4760132,14.4760742h103.1774902v22.0595703h301.1013184V150.0374756z M495.8218994,34.229248
		c6.1542969,0,11.1671753,5.0128174,11.1671753,11.1672363c0,6.1543579-5.0128784,11.1671753-11.1671753,11.1671753h-50.0457153
		c-1.3153076,0-2.5724487,0.2399292-3.7472534,0.6783447c-0.8023682,0.2895508-1.5632935,0.6865845-2.2664795,1.1580811
		c-2.8538208,1.9356079-4.7398682,5.2113647-4.7398682,8.9172363c0,5.9310303,4.8226318,10.7536011,10.7536011,10.7536011
		h93.8873901c6.1542969,0,11.1671753,5.0128174,11.1671753,11.1672363c0,6.1543579-5.0128784,11.1671753-11.1671753,11.1671753
		h-55.8361206c-1.3153076,0-2.5724487,0.2399292-3.7472534,0.6783447c-0.8023682,0.2895508-1.5632935,0.6865845-2.2664795,1.1580811
		c-2.8538208,1.9356689-4.7398682,5.2113647-4.7398682,8.9172363v2.4815674c0,5.9310913,4.8226318,10.7536621,10.7536011,10.7536621
		h31.0200806c6.1542969,0,11.1671753,5.0128174,11.1671753,11.1671753c0,6.1544189-5.0128784,11.1672363-11.1671753,11.1672363
		h-52.2510376V82.3065186H384.90802V34.229248H495.8218994z M381.5992432,3.3088379V167.921875H161.1500244v-38.0512695h-38.4648438
		V47.1504517H87.1155396V3.3088379H381.5992432z M439.4348145,116.2218018v7.4448242H384.90802v-7.4448242H439.4348145z
		 M439.4348145,146.8282471H384.90802v-7.4448242h54.5267944V146.8282471z M384.90802,162.545105h54.5267944v7.4447632H384.90802
		V162.545105z M349.3112183,186.0294189c0,0.0081177-0.0082397,0.0246582-0.0082397,0.032959
		c-0.3557129,0.9431152-0.7362061,1.8860474-1.1415405,2.8043213c-0.4135742,0.9263306-0.8520508,1.8363647-1.3152466,2.737854
		c-0.0083008,0.0166016-0.0166016,0.0331421-0.0247803,0.0496826c-10.8777466-6.1460571-22.9466553-9.8933105-35.3959961-11.0266724
		c0.0248413-0.0163574,0.0579224-0.0328979,0.0827637-0.0411987c0.3970337-0.2150269,0.7692871-0.4301147,1.1497803-0.6618042
		c0.7279053-0.4384155,1.4310913-0.9348145,2.1010742-1.4558716c0.1737061-0.1322632,0.3391724-0.2647705,0.5045776-0.3970337
		c0.2398682-0.2067871,0.4880981-0.4135742,0.7196655-0.6286621c0.2398682-0.2150879,0.4797974-0.4301758,0.703125-0.6535034
		c0.0579224-0.06604,0.1323853-0.1240234,0.1985474-0.1902466c0.1737061-0.1737061,0.3391724-0.3556519,0.5128784-0.5293579
		c0.3391113-0.3640747,0.6782837-0.7280273,0.9926758-1.1085205c0.1571045-0.1984863,0.31427-0.3887329,0.4714355-0.5872803
		c0.1571655-0.1984863,0.3060913-0.3970337,0.4467163-0.59552c0.1489258-0.1985474,0.2894897-0.4053345,0.4301147-0.6121216
		c0.140686-0.2068481,0.28125-0.4136353,0.4135742-0.6287231c0.1323853-0.2150879,0.2647095-0.421875,0.388855-0.6452026
		c0.1323242-0.2233887,0.2564087-0.4384766,0.3722534-0.6535645c0.0018311-0.0027466,0.0029297-0.0054932,0.0045776-0.0082397
		h31.5474854c-0.0280762,0.4428711-0.0561523,0.8864746-0.0936279,1.3236084
		c-0.0496216,0.5044556-0.0992432,1.0091553-0.1654663,1.5053101c-0.1157837,1.0340576-0.2729492,2.0597534-0.4549561,3.0773926
		c-0.0909424,0.487915-0.1819458,0.9760132-0.2894897,1.4639893c-0.1158447,0.5626221-0.2399292,1.125061-0.3805542,1.6791992
		c-0.1075439,0.4550171-0.2315674,0.9017334-0.3556519,1.3567505c-0.1075439,0.3970337-0.2150879,0.7857666-0.3309326,1.1745605
		c-0.0744019,0.2316284-0.140564,0.4550171-0.2150269,0.6783447c-0.0992432,0.3391113-0.2067871,0.6698608-0.3308716,1.0009155
		C349.6834717,185.00354,349.5015259,185.5164795,349.3112183,186.0294189z M249.2871704,171.2307129h31.5606079
		c2.0933838,3.883667,5.2752686,7.098999,9.1448364,9.2151489c0.3391724,0.1817017,0.6866455,0.3638916,1.0422974,0.5375977
		c0.0413818,0.0248413,0.0910034,0.0413818,0.140625,0.0662231c0.0247803,0.0080566,0.0496216,0.0246582,0.0744019,0.0328979
		c-12.4658813,1.7041016-24.394165,6.0386353-35.081604,12.796814
		C252.1395264,186.9707031,249.7957153,179.2241821,249.2871704,171.2307129z M310.5817261,177.31073
		c-0.2730103,0.1654053-0.5542603,0.314209-0.843811,0.4630737c-0.140564,0.0745239-0.2895508,0.1490479-0.4384155,0.2233276
		c-0.2150269,0.107666-0.4384155,0.2067871-0.6535034,0.2979126c-0.0744629,0.0330811-0.1571655,0.0662231-0.2316284,0.0991211
		c-0.281189,0.1242065-0.5706787,0.2399292-0.8602295,0.3392944c-0.9099121,0.3308105-1.8446655,0.6038208-2.8042603,0.7940674
		c-0.2977905,0.06604-0.6121216,0.1157227-0.9181519,0.1654053c-0.3308716,0.0496826-0.6700439,0.0911255-1.0091553,0.1240234
		c-0.2978516,0.0331421-0.6039429,0.0579834-0.9182739,0.0745239h-0.0744019
		c-0.3143311,0.0165405-0.6286621,0.0248413-0.9512939,0.0248413c-6.7455444,0-12.6938477-3.4551392-16.1810303-8.6856079
		h32.3654785c-0.0071411,0.0105591-0.0137939,0.022583-0.0209351,0.0330811
		c-0.0496216,0.0743408-0.1075439,0.1488647-0.1571655,0.2233887c0,0.0083008-0.0082397,0.0083008-0.0082397,0.0165405
		c-0.1323853,0.1985474-0.2647095,0.3887939-0.4053345,0.5707397c-0.0496216,0.0496826-0.0910645,0.1074219-0.1323853,0.1571045
		c-0.2067871,0.2896118-0.4384155,0.5707397-0.6865845,0.8520508c-0.2233276,0.281311-0.4714966,0.5541382-0.7362061,0.8189087
		c-0.2481079,0.2647705-0.5045776,0.529541-0.7775269,0.7692261c-0.2647095,0.24823-0.5460205,0.4963989-0.8189697,0.7280884
		c-0.2647095,0.2233276-0.5376587,0.4384155-0.8189697,0.6452026c-0.0164795,0.0083008-0.03302,0.0248413-0.0496216,0.032959
		c-0.281189,0.215271-0.5707397,0.4220581-0.8685303,0.6123047c-0.0330811,0.0331421-0.0744019,0.0577393-0.1158447,0.0743408
		c-0.2646484,0.1819458-0.5376587,0.3473511-0.8189087,0.5046387
		C310.6313477,177.2858887,310.6065063,177.3024292,310.5817261,177.31073z M257.9633789,196.6588745
		c0.1158447-0.0745239,0.2399292-0.1488647,0.3557129-0.2233887c13.4833984-8.4291382,29.0099487-12.8712769,45.0410767-12.8712769
		c14.5505371,0,28.8362427,3.7141113,41.4593506,10.7619019c0.1323853,0.0745239,0.2399292,0.1407471,0.3639526,0.2067871
		c-0.1819458,0.2978516-0.3474121,0.5957642-0.5293579,0.8851318c-0.0993042,0.1737061-0.2067871,0.3474121-0.3226318,0.5127563
		c0,0.0166016-0.0165405,0.0331421-0.0248413,0.0496826c-0.59552,0.9265747-1.2242432,1.8366089-1.8859863,2.7132568
		c0,0.0083008-0.0082397,0.0083008-0.0165405,0.0166016c-0.0083008,0.0165405-0.0165405,0.0330811-0.0247803,0.0496826
		c-0.3391724,0.4467163-0.6783447,0.8851318-1.0175171,1.3153076c-0.281189,0.3638916-0.5790405,0.7278442-0.8933716,1.0834961
		c-0.0744019,0.0910645-0.1489258,0.1901855-0.2315674,0.281311c-0.3226318,0.3804932-0.6535034,0.7609253-0.9926758,1.1248779
		c-0.0165405,0.0165405-0.0330811,0.0413818-0.0496216,0.0579224c-0.2647095,0.2979126-0.5294189,0.5872803-0.8106689,0.8686523
		c-0.1488647,0.1653442-0.3060303,0.3307495-0.4714966,0.4963989c-0.2481689,0.2645264-0.5128784,0.5292969-0.7775879,0.7775269
		c-0.0992432,0.0991211-0.1984863,0.1984863-0.3060303,0.3059082c-0.3640137,0.355835-0.7362061,0.7032471-1.1167603,1.0422974
		c-0.0082397,0.0083008-0.0165405,0.0248413-0.0330811,0.0331421c-0.3887329,0.355835-0.7858276,0.7114868-1.1911621,1.0505371
		c-0.0247803,0.0165405-0.0496216,0.0413818-0.0744019,0.0579834c-0.2730103,0.2399292-0.5542603,0.4715576-0.8355103,0.6948853
		c-0.2730103,0.2314453-0.5459595,0.454834-0.8272095,0.6616211c-0.0909424,0.0828247-0.1903076,0.1490479-0.28125,0.2233887
		c-0.2894897,0.2316284-0.5790405,0.4467163-0.8768311,0.6618042c-0.2894897,0.2233276-0.5872803,0.4301147-0.8851318,0.6369019
		c-0.0992432,0.0745239-0.1984863,0.1488647-0.3060303,0.2150879c-0.3060913,0.2150879-0.6038818,0.421875-0.9182129,0.6204224
		c-0.2481079,0.1737061-0.4962769,0.3308105-0.7445068,0.487915c-0.173645,0.1159058-0.3474121,0.2233887-0.5211182,0.3309937
		c-0.2564087,0.1654053-0.5211182,0.3225098-0.7858276,0.4796753c-0.28125,0.1738892-0.5790405,0.3475342-0.8768311,0.5129395
		c-0.1157837,0.0745239-0.2398682,0.140564-0.3557129,0.1985474c-0.421814,0.2481689-0.8519897,0.4797974-1.2904663,0.703186
		c-0.4879761,0.2647705-0.9760742,0.5127563-1.4723511,0.7443848c-0.3887939,0.1985474-0.7941284,0.3804932-1.1911621,0.562439
		c-0.2647095,0.1242065-0.5377197,0.2399292-0.8106689,0.355835c-0.28125,0.1240234-0.5625,0.2479858-0.8520508,0.3639526
		c-0.1571655,0.0662231-0.3060303,0.1322632-0.4631958,0.1819458c-0.3309326,0.140564-0.6617432,0.2730103-0.9926758,0.3887329
		c-0.4384155,0.1737061-0.8851318,0.3392944-1.3317871,0.4881592c-0.5294189,0.1902466-1.0670776,0.3638916-1.6047363,0.5209961
		c-0.0083008,0.0083008-0.0166016,0.0166016-0.0248413,0.0083008c-0.4963379,0.1655884-1.0009155,0.3144531-1.5137939,0.4467163
		c-0.0496216,0.0166016-0.0992432,0.0331421-0.1488647,0.0414429c-0.4384155,0.1239624-0.8851318,0.2398682-1.3318481,0.3473511
		c-0.1240234,0.0330811-0.2481079,0.0662231-0.3721924,0.0910645c-0.3805542,0.0908813-0.7610474,0.1819458-1.1498413,0.2564697
		c-0.7362061,0.1654053-1.4724121,0.3059692-2.2086182,0.4216919c-0.5376587,0.0910645-1.0836182,0.1738892-1.6295776,0.2481689
		c-0.5459595,0.0745239-1.1002197,0.1408081-1.6544189,0.1985474c-0.6286621,0.0662231-1.2573242,0.1242065-1.8859863,0.1655884
		c-1.125,0.06604-2.2583008,0.1074219-3.3915405,0.1074219c-1.1166992,0-2.2334595-0.0330811-3.3418579-0.1074219
		c-0.5542603-0.0330811-1.1085205-0.0745239-1.6544189-0.1324463c-0.6783447-0.0578003-1.3483276-0.140564-2.0101318-0.2316895
		c-0.4052734-0.0494385-0.8106689-0.1074219-1.2077026-0.173645c-0.4632568-0.0745239-0.9264526-0.1488647-1.3814087-0.2399292
		c-0.4467163-0.0825806-0.8851318-0.1654053-1.3235474-0.2647705c-0.3474121-0.0742798-0.703125-0.1488037-1.0422363-0.2396851
		c-0.3143311-0.0662842-0.6204224-0.1408081-0.9264526-0.2233887c-0.4467163-0.107666-0.8934326-0.2233276-1.3318481-0.3556519
		c-0.5045776-0.1407471-1.0091553-0.2896118-1.5054932-0.4549561c-0.3970337-0.1159668-0.7941284-0.24823-1.1829224-0.3887939
		c-0.4301147-0.1490479-0.8519897-0.2978516-1.2738647-0.4550171c-0.2316284-0.0910645-0.4714966-0.173645-0.703125-0.2647705
		c-0.421875-0.1653442-0.8354492-0.3307495-1.2490845-0.5129395c-0.0082397,0-0.0165405-0.0080566-0.0248413-0.0163574
		c-0.4052734-0.1572876-0.8106079-0.3392944-1.2076416-0.5212402c-0.1323853-0.0577393-0.2647095-0.1240234-0.3970947-0.1902466
		c-0.3060913-0.1322632-0.6121216-0.2730103-0.9099121-0.4301758c-0.1820068-0.0827637-0.3639526-0.173645-0.5377197-0.2564697
		c-0.3804321-0.1984863-0.7609863-0.3887329-1.1415405-0.59552c-0.0247803-0.0083008-0.0413208-0.0166016-0.0578613-0.032959
		c-0.4549561-0.2318115-0.9016724-0.4797974-1.3400879-0.7445679c-0.4549561-0.2565308-0.9016113-0.5212402-1.3483276-0.8023682
		c-0.3804932-0.2233887-0.7610474-0.4633179-1.1333008-0.7197876c-0.1488647-0.0908813-0.2977295-0.1902466-0.4466553-0.2893677
		c-0.3474121-0.2316895-0.6948853-0.4633179-1.0339966-0.7114868c-0.4301758-0.2976685-0.8520508-0.6121216-1.2738647-0.9263916
		c-0.4136353-0.3144531-0.8272095-0.6286621-1.2407837-0.9596558c-0.4136353-0.3225098-0.8189697-0.6533203-1.2160645-1.0009155
		c-0.3970337-0.3307495-0.7941284-0.6783447-1.1828613-1.0422363c-0.3805542-0.3308105-0.7445068-0.6781616-1.1084595-1.0339966
		c-0.0744629-0.0662842-0.140625-0.1323242-0.2150269-0.2068481c-0.3143311-0.2893677-0.6204224-0.59552-0.9182739-0.90979
		c-0.4549561-0.4715576-0.9098511-0.951416-1.3565674-1.4393311c-0.2895508-0.3144531-0.5707397-0.6203613-0.8354492-0.9431152
		c-0.3557129-0.4135742-0.7113647-0.8354492-1.0588379-1.265625c-0.2894897-0.3556519-0.5790405-0.7113037-0.84375-1.0753784
		c-0.0248413-0.032959-0.0578613-0.0743408-0.0827026-0.1074829c-0.0166016-0.0248413-0.0413818-0.0496826-0.0579224-0.0745239
		s-0.0330811-0.0413818-0.0496216-0.06604c-0.3143921-0.3970337-0.6121216-0.8025513-0.8933716-1.2161255
		c-0.3226318-0.4299927-0.6286621-0.8684082-0.9099731-1.3151245
		C257.9385986,196.675415,257.9468384,196.6671143,257.9633789,196.6588745z M87.1155396,50.4592896h32.2608643v82.7201538
		h38.4648438v34.7424316h-70.725708V50.4592896z M58.317688,228.1688232c-6.1543579,0-11.1672363-5.0128174-11.1672363-11.1672363
		c0-6.1543579,5.0128784-11.1671753,11.1672363-11.1671753h50.0456543c1.3153687,0,2.5725098-0.2399292,3.7472534-0.6783447
		c0.8023682-0.2895508,1.5633545-0.6865845,2.2665405-1.1580811c2.8538208-1.9356079,4.7398682-5.2113647,4.7398682-8.9172363
		c0-5.9310303-4.8226929-10.7536011-10.7536621-10.7536011H14.4760132c-6.1542969,0-11.1672363-5.0128174-11.1672363-11.1672363
		c0-6.1543579,5.0129395-11.1671753,11.1672363-11.1671753h55.8360596c1.3153687,0,2.5725098-0.2399292,3.7472534-0.6783447
		c0.8023682-0.2895508,1.5633545-0.6865845,2.2665405-1.1580811c2.8538208-1.9356079,4.7398682-5.2113647,4.7398682-8.9172363
		v-2.4815674c0-5.9310913-4.8226929-10.7536621-10.7536621-10.7536621H39.2920532
		c-6.1543579,0-11.1672363-5.0128174-11.1672363-11.1671753c0-6.1544189,5.0128784-11.1672363,11.1672363-11.1672363h44.5146484
		v55.5612793h77.6884766v56.9381104H58.317688z M164.8039551,250.2284546v-78.9977417h32.2608643v44.255249h38.4648438v34.7424927
		H164.8039551z M238.838501,250.2284546v-38.0512695h-38.4649048v-40.9464722h45.5994263
		c0.5158081,8.6372681,3.0424194,17.0037842,7.4159546,24.4520874l-0.0165405,0.0166016l0.4301147,0.6864014l0.421936,0.6866455
		c10.1331787,16.1884155,27.5705566,25.8583374,46.6541138,25.8583374c0.6203613,0,1.2407837-0.0083008,1.8612061-0.0331421
		c0.5955811-0.0165405,1.1828613-0.0496826,1.7785034-0.0908813c0.8519897-0.0496826,1.6957397-0.1324463,2.53125-0.2316284
		c0.3225708-0.0248413,0.6369019-0.0662231,0.9512329-0.107605c0.3308716-0.0411987,0.6700439-0.0908813,1.0009155-0.1488647
		c0.2564087-0.0331421,0.5045776-0.0662231,0.7528076-0.1157227c0.3721924-0.0579834,0.7444458-0.1242065,1.1166992-0.1987305
		c0.1488647-0.0165405,0.2977905-0.0494385,0.4466553-0.0825806c0.4797974-0.0910645,0.9595947-0.1902466,1.4393311-0.2979126
		c0.0827637-0.0165405,0.1737061-0.0330811,0.2481689-0.0577393c0.3887939-0.0828247,0.7775879-0.1737061,1.1580811-0.2730103
		c0.2647095-0.0579834,0.5294189-0.1240234,0.7858276-0.1985474c0.3805542-0.0993652,0.7528076-0.2067871,1.125-0.3144531
		c0.0744629-0.0165405,0.140686-0.0330811,0.2067871-0.0577393c0.4632568-0.1325073,0.9182129-0.2730713,1.3731689-0.421875
		c0.1820068-0.0579834,0.3640137-0.1159058,0.5376587-0.1819458c0.3640137-0.1159668,0.7279663-0.2399292,1.0836182-0.3641357
		c0.1489868-0.0494995,0.3060913-0.1074829,0.4550171-0.1654053c0.3970337-0.140564,0.7858276-0.2896118,1.1746216-0.4467163
		c0.7527466-0.2894287,1.4889526-0.5955811,2.2251587-0.9263916c0.3308716-0.1488037,0.6617432-0.2978516,0.9926758-0.4467163
		c2.0514526-0.9594727,4.0449829-2.0431519,5.9641113-3.2508545c0.2977905-0.1821289,0.5955811-0.3723755,0.8850708-0.5706787
		c0.3805542-0.2399292,0.7528076-0.4881592,1.125-0.7529297c0.3557129-0.2398682,0.6948853-0.4797974,1.0422974-0.736084
		c0.4301147-0.3061523,0.8602905-0.6204224,1.2821045-0.9597168c0.24823-0.1819458,0.4963989-0.3721924,0.7362671-0.5789795
		c0.2150879-0.1571045,0.4301147-0.3308105,0.6369629-0.5129395c0.2977905-0.2314453,0.59552-0.4796753,0.8850708-0.736145
		c0.1240845-0.0991821,0.2398682-0.1984863,0.3557129-0.314209c0.3557129-0.2979126,0.7113647-0.6204224,1.0587769-0.9431763
		c0.0496216-0.0413818,0.0992432-0.0825806,0.140686-0.1322632c0.3474121-0.3144531,0.6865234-0.6369629,1.0256958-0.9677734
		c0.1158447-0.107605,0.2316284-0.215271,0.3391724-0.3309937c0.2647095-0.2647705,0.5294189-0.5209961,0.7941284-0.7940674
		c0.1737061-0.1819458,0.3556519-0.3638916,0.5211182-0.5541382c0.2894897-0.3061523,0.5707397-0.6121216,0.8519897-0.9265747
		c0.3887939-0.421875,0.7610474-0.8520508,1.1332397-1.2904663c0,0,0.0083008-0.0083008,0.0083008-0.0163574
		c0.3639526-0.4301758,0.7196655-0.8603516,1.0671387-1.2987671c0.0082397-0.0083008,0.0164795-0.0166016,0.0164795-0.0248413
		c0.7114258-0.8934326,1.3980103-1.8115234,2.0515137-2.7546387c0.3308716-0.4713745,0.6534424-0.9512329,0.9678345-1.4393311
		c0.6699829-1.0257568,1.3069458-2.0679932,1.9025269-3.1351318l0.1240845-0.2233887l0.6617432-1.1911011l-0.0165405-0.0083008
		c0.0083008-0.0165405,0.0165405-0.0330811,0.0248413-0.0496826c0.5294189-1.0256958,1.0339966-2.0679932,1.4972534-3.1266479
		c0.1323242-0.2978516,0.2647095-0.5957642,0.3804321-0.8934326c0.0993652-0.2150879,0.1903076-0.4384155,0.281311-0.6618042
		c0.0165405-0.0330811,0.0248413-0.0745239,0.0413208-0.107605c0.3640137-0.9015503,0.703186-1.8115234,1.0175171-2.737915
		c0.173645-0.5129395,0.3474121-1.0422974,0.5045776-1.5635376c0.1654663-0.5209961,0.3143311-1.050354,0.4631958-1.579834
		c0.1489258-0.529541,0.28125-1.0671387,0.4136353-1.5964355c0.2647095-1.0671387,0.4962769-2.1425781,0.6865845-3.2262573
		c0.0992432-0.5375977,0.1902466-1.0836792,0.2729492-1.6295166c0.0744629-0.4715576,0.1323853-0.9429321,0.1984863-1.4227905
		c0.0083008-0.0828247,0.0166016-0.1654053,0.0331421-0.2481689c0.0579224-0.5375977,0.1158447-1.0669556,0.1654663-1.6047363
		c0.0413208-0.5046997,0.0827026-1.0174561,0.1157837-1.5221558c0.0027466-0.0415039,0.0028687-0.0824585,0.0054321-0.1239624
		h17.4733276v2.0679932h69.4849243v-14.062439H384.90802v-9.0991821h57.8356323v-14.062439H384.90802v-9.0992432h57.8356323
		v-14.0623779H384.90802V85.6153564h74.3796387v164.6130981H238.838501z"/>
	<path d="M373.258728,196.4603271h69.4849243v-14.062439H373.258728V196.4603271z M376.5675049,185.7067261h62.8673096v7.4448242
		h-62.8673096V185.7067261z"/>
	<path d="M373.258728,219.6219482h69.4849243v-14.0623779H373.258728V219.6219482z M376.5675049,208.8683472h62.8673096v7.4448242
		h-62.8673096V208.8683472z"/>
	<path class="st1" d="M122.6851807,47.1504517v82.7201538h38.4648438v38.0512695h220.4492188V3.3088379H87.1155396v43.8416138
		H122.6851807z M365.0551758,53.7680664v14.062439h-69.4849243v-14.062439H365.0551758z M365.0551758,76.9297485v14.0623779
		h-69.4849243V76.9297485H365.0551758z M365.0551758,137.3154297h-69.4849243v-14.062439h69.4849243V137.3154297z
		 M295.5702515,114.1538086v-14.062439h69.4849243v14.062439H295.5702515z M365.0551758,30.6064453v14.062439h-69.4849243
		v-14.062439H365.0551758z M168.371521,81.1237183c0.0330811-0.4136353,0.0661621-0.8189697,0.1157837-1.2242432
		c0.0993042-1.0257568,0.2399292-2.0431519,0.3970947-3.0525513c0.0330811-0.1654053,0.0579224-0.3225098,0.0827026-0.4796143
		c0.0744629-0.4384766,0.1571655-0.8768921,0.2398682-1.3070679c0.2150879-1.09198,0.4632568-2.1671753,0.7362061-3.2260132
		c0.0579224-0.2150879,0.1075439-0.4384155,0.1737671-0.6618042c0.0579224-0.2150879,0.1157837-0.4301147,0.1819458-0.6535034
		c0.1240845-0.4301758,0.2481689-0.8685913,0.3887939-1.2987671c0.1323242-0.4301758,0.2729492-0.8520508,0.4136353-1.2822266
		c0.0744019-0.2067871,0.1488647-0.4216309,0.2232666-0.6369629c0.0745239-0.2148438,0.1489868-0.4216309,0.2233887-0.628479
		c0.1240845-0.3309937,0.2398682-0.6535034,0.3639526-0.9679565c0.0993042-0.2647095,0.2068481-0.5292969,0.3143311-0.7857666
		c0.140625-0.3391113,0.281311-0.6866455,0.4301758-1.0257568c0.2398682-0.5541382,0.4880371-1.1002197,0.7444458-1.6461182
		c0.0166016-0.0330811,0.0331421-0.0662231,0.0496216-0.0993652c0.24823-0.5375977,0.5128784-1.0751953,0.7858887-1.6046753
		c0.1488647-0.2977295,0.3060303-0.6038818,0.4714966-0.8934937c0.0910034-0.1817017,0.1902466-0.3638916,0.2977905-0.5458374
		c0.421875-0.7609863,0.8602905-1.5136719,1.3152466-2.2582397c0.2977905-0.4796753,0.5955811-0.9594727,0.9182129-1.4227905
		c0.2067871-0.3308105,0.421875-0.6535034,0.6534424-0.9760132c0.1903076-0.281311,0.388855-0.562439,0.5790405-0.8355103
		c0.6204224-0.8685913,1.265686-1.7123413,1.9439697-2.5395508c0.2564697-0.3225098,0.5211792-0.6452637,0.7940674-0.9594727
		c0.1158447-0.1407471,0.2316895-0.281311,0.3557129-0.421875c0.24823-0.2896118,0.4963379-0.5709229,0.7610474-0.8520508
		c0.7610474-0.8603516,1.5551758-1.687561,2.3823853-2.4898682c0.1901855-0.1902466,0.3804321-0.3804932,0.5789795-0.562439
		c0.0992432-0.0993652,0.1985474-0.1902466,0.3060303-0.2896118c0.2564697-0.24823,0.5211792-0.4881592,0.7941284-0.7278442
		c0.421936-0.3806763,0.843811-0.7611694,1.2821655-1.1168213c0.3722534-0.3226929,0.7528076-0.6369629,1.1333008-0.9346313
		c0.0165405-0.0250244,0.0330811-0.0413818,0.0578613-0.0496826c0.4384766-0.355835,0.8768311-0.703186,1.3317871-1.0339966
		c0.3970947-0.3061523,0.8024292-0.6038208,1.2160034-0.8934326c0.4053345-0.2896118,0.8189697-0.5707397,1.2325439-0.84375
		c0.2067871-0.1488647,0.421875-0.2896118,0.6369629-0.421936c0.3970337-0.2647095,0.7940674-0.5127563,1.1994629-0.7609253
		c0.4880371-0.2979126,0.984375-0.5955811,1.4806519-0.8851929c0.5459595-0.314209,1.1002197-0.6121216,1.6627197-0.9014893
		c0.3804321-0.2067871,0.7692871-0.4055176,1.15802-0.5957642c1.1829834-0.5955811,2.3989258-1.1497192,3.6397095-1.6461182
		c0.4714966-0.1985474,0.9512939-0.3887939,1.4310303-0.562439c0.5460205-0.2067871,1.1002197-0.4053345,1.6544189-0.5955811
		c0.5377197-0.1819458,1.0836182-0.3638916,1.6378784-0.5292969c0.0744629-0.0250854,0.1489258-0.0496826,0.2233276-0.0662842
		c0.3805542-0.1159058,0.7692871-0.2316284,1.1580811-0.3392334c0.2481689-0.0743408,0.5045776-0.140564,0.7610474-0.1985474
		c1.0092163-0.2728271,2.0266113-0.5044556,3.0606689-0.7112427c0.562439-0.1159668,1.1332397-0.2150879,1.6957397-0.3144531
		c0.0579224-0.0083008,0.1075439-0.0166016,0.1654663-0.0246582c0.4135742-0.0745239,0.8271484-0.1325073,1.2490234-0.1904297
		c0.2233887-0.032959,0.4549561-0.06604,0.6866455-0.0908813c0.5458984-0.0745239,1.1000977-0.1407471,1.6543579-0.1902466
		c0.5376587-0.0579834,1.0836792-0.0993652,1.6212769-0.1325073c0.0993042-0.0082397,0.1985474-0.0163574,0.2977905-0.0163574
		c0.4797974-0.0330811,0.9595947-0.0579224,1.4476318-0.0745239c0.0744629-0.0082397,0.1571655-0.0082397,0.2481689-0.0082397
		c0.5872803-0.0248413,1.1829224-0.0331421,1.7784424-0.0331421c30.1763916,0,54.7525024,24.4273071,55.0006714,54.5455933
		c0.0082397,0.1490479,0.0082397,0.3062134,0.0082397,0.4633179c0,0.5210571-0.0082397,1.0339966-0.0247803,1.5550537
		c-0.0165405,0.6203613-0.0413208,1.2492676-0.0827637,1.8777466c-0.0330811,0.5046997-0.0744019,1.0174561-0.1157837,1.5220947
		c-0.0496216,0.5378418-0.1074829,1.0671387-0.1654053,1.6047363c-0.0166016,0.0828247-0.0248413,0.1654053-0.0331421,0.24823
		c-0.0661621,0.4797974-0.1240234,0.9511719-0.1984863,1.4227295c-0.0827026,0.5458984-0.1737061,1.09198-0.2729492,1.6295776
		c-0.1903076,1.0836792-0.421875,2.1590576-0.6865845,3.2261963c-0.1323853,0.5293579-0.2647095,1.0669556-0.4136353,1.5964355
		c-0.1488647,0.529541-0.2977905,1.0588379-0.4631958,1.579895c-0.1572266,0.5212402-0.3309326,1.0505371-0.5045776,1.5635376
		c-0.3143921,0.9263306-0.6535645,1.8363647-1.0175171,2.737854c-0.0165405,0.0331421-0.0247803,0.0745239-0.0413818,0.107666
		c-0.0909424,0.2233276-0.1819458,0.4467163-0.28125,0.6618042c-0.1157837,0.2976685-0.2481689,0.5955811-0.3804932,0.8934326
		c-0.4631958,1.0586548-0.9677734,2.1009521-1.4971924,3.1266479c-0.0083008,0.0165405-0.0166016,0.0331421-0.0248413,0.0496826
		l0.0165405,0.0083008l-0.6617432,1.1911011l-0.1240845,0.2233276c-0.5955811,1.0671387-1.2325439,2.109436-1.9025879,3.1351318
		c-0.3143311,0.4881592-0.6369629,0.9679565-0.9677734,1.4393311c-0.6535645,0.9431152-1.3400879,1.8612061-2.0515137,2.7546387
		c0,0.0083008-0.0083008,0.0166016-0.0165405,0.0248413c-0.3474121,0.4384766-0.703125,0.8685913-1.0670776,1.2987671
		c0,0.0081177-0.0083008,0.0163574-0.0083008,0.0163574c-0.3721924,0.4384766-0.7444458,0.8685913-1.1332397,1.2905273
		c-0.28125,0.3143921-0.5625,0.6203613-0.8519897,0.9265137c-0.1654663,0.1902466-0.3474121,0.3721924-0.5211792,0.5541992
		c-0.2647095,0.2730103-0.5294189,0.5292969-0.7941284,0.7940674c-0.1075439,0.1157227-0.2233276,0.2233276-0.3391113,0.3309937
		c-0.3391724,0.3308105-0.6783447,0.6533203-1.0257568,0.9677734c-0.0413818,0.0496826-0.0910034,0.0908813-0.140625,0.1322632
		c-0.3474121,0.3227539-0.703125,0.6452637-1.0587769,0.9431152c-0.1158447,0.1157227-0.2316895,0.2150879-0.3557129,0.31427
		c-0.2895508,0.2564697-0.5873413,0.5046387-0.8851318,0.736084c-0.2067871,0.1821899-0.421875,0.355835-0.6369629,0.5130005
		c-0.2398682,0.2067871-0.4879761,0.3970337-0.7362061,0.5789795c-0.421814,0.3392944-0.8519897,0.6535034-1.2821655,0.9596558
		c-0.3474121,0.2562866-0.6865234,0.4962158-1.0422363,0.736145c-0.3722534,0.2647705-0.7445068,0.5129395-1.125,0.7528687
		c-0.2894897,0.1983643-0.5872803,0.3885498-0.8851318,0.5707397c-1.9191284,1.2077026-3.9126587,2.2913818-5.9640503,3.2508545
		c-0.3309326,0.1488037-0.6618042,0.2978516-0.9926758,0.4467163c-0.7362061,0.3308105-1.4724731,0.6369629-2.2251587,0.9263306
		c-0.388855,0.1571655-0.7775879,0.3062134-1.1746216,0.4467163c-0.1489258,0.0579834-0.3060913,0.1159668-0.4550171,0.1654053
		c-0.3557129,0.1242065-0.7196655,0.24823-1.0836182,0.3641357c-0.1737061,0.06604-0.3557129,0.1240234-0.5376587,0.1819458
		c-0.4549561,0.1488647-0.9099731,0.2894287-1.3731689,0.421875c-0.0661621,0.0246582-0.1323242,0.0411987-0.2067871,0.0578003
		c-0.3722534,0.107605-0.7445068,0.2150879-1.125,0.3144531c-0.2564087,0.0745239-0.5211182,0.140564-0.7858887,0.1984863
		c-0.3804321,0.0993652-0.7692871,0.1902466-1.15802,0.2730713c-0.0744629,0.0245972-0.1654663,0.0411987-0.24823,0.0577393
		c-0.4797363,0.107666-0.9595337,0.2067871-1.43927,0.2978516c-0.1489258,0.0331421-0.2977905,0.06604-0.4467163,0.0826416
		c-0.3722534,0.0745239-0.7445068,0.1407471-1.1166992,0.1987305c-0.2481689,0.0494385-0.4963379,0.0825806-0.7527466,0.1157227
		c-0.3308716,0.0579224-0.6700439,0.107605-1.0009766,0.1488037c-0.31427,0.0413818-0.6286011,0.0828247-0.9512329,0.107666
		c-0.8354492,0.0991211-1.6792603,0.1819458-2.53125,0.2316284c-0.5955811,0.0411987-1.1828613,0.0743408-1.7785034,0.0908813
		c-0.6203613,0.0248413-1.2407837,0.0331421-1.8612061,0.0331421c-19.0834961,0-36.520874-9.6699829-46.6541138-25.8583374
		l-0.421875-0.6866455l-0.4301758-0.6864624l0.0166016-0.0165405c-4.9301758-8.3962402-7.5192871-17.9584961-7.5192871-27.7609253
		c0-0.1654053,0-0.3391113,0.0082397-0.5045166c0.0083008-0.4797974,0.0166016-0.9679565,0.0330811-1.4475708
		c0.0166016-0.4220581,0.0331421-0.8356934,0.0579224-1.2492676c0-0.0494995,0.0083008-0.0991821,0.0083008-0.1488647
		C168.3136597,81.8846436,168.3384399,81.5041504,168.371521,81.1237183z"/>
	<rect x="298.8790894" y="33.9152832" class="st1" width="62.8673096" height="7.4447632"/>
	<rect x="298.8790894" y="57.0769043" class="st1" width="62.8673096" height="7.4448242"/>
	<polygon class="st1" points="87.1155396,167.921875 157.8412476,167.921875 157.8412476,133.1794434 119.3764038,133.1794434 
		119.3764038,50.4592896 87.1155396,50.4592896 	"/>
	<rect x="298.8790894" y="103.4002075" class="st1" width="62.8673096" height="7.4447632"/>
	<rect x="298.8790894" y="126.5618286" class="st1" width="62.8673096" height="7.4448242"/>
	<rect x="298.8790894" y="80.2385254" class="st1" width="62.8673096" height="7.4448242"/>
	<path class="st2" d="M267.1311035,112.0195312c-12.6231079-7.0477295-26.9088745-10.7619019-41.4593506-10.7619019
		c-16.031189,0-31.5576782,4.4421997-45.0411377,12.8713379c-0.1157837,0.0745239-0.2398682,0.1488037-0.3556519,0.2233276
		c-0.0165405,0.0083008-0.0248413,0.0166016-0.0413818,0.0248413c0.28125,0.4467163,0.5873413,0.8851929,0.9099731,1.3151245
		c0.281189,0.4136353,0.5789795,0.8191528,0.8933105,1.2161865c0.0166016,0.0246582,0.0331421,0.0411987,0.0496216,0.06604
		c0.0166016,0.0248413,0.0413818,0.0496826,0.0579224,0.0745239c0.0248413,0.0330811,0.0579224,0.0745239,0.0827637,0.1074219
		c0.2646484,0.3641357,0.5541992,0.7197876,0.843689,1.0754395c0.3474731,0.4301147,0.703186,0.8519897,1.0588379,1.265625
		c0.2647095,0.3226929,0.5459595,0.6286621,0.8355103,0.9431152c0.4466553,0.487915,0.9016113,0.9677734,1.3565674,1.4393311
		c0.2978516,0.314209,0.6038818,0.6203613,0.9182129,0.90979c0.0744629,0.0745239,0.140625,0.140564,0.2150269,0.2067871
		c0.3640137,0.355835,0.7279663,0.703186,1.1085205,1.0339966c0.3887329,0.3639526,0.7858276,0.7114868,1.1828613,1.0422974
		c0.3970337,0.3475342,0.8024292,0.6783447,1.2160034,1.0008545c0.4136353,0.3310547,0.8272095,0.6452637,1.2408447,0.9597168
		c0.421814,0.314209,0.843689,0.6286621,1.2738647,0.9263306c0.3391113,0.24823,0.6865845,0.4798584,1.0339966,0.7114868
		c0.1488647,0.0991821,0.2977905,0.1985474,0.4466553,0.2894287c0.3722534,0.2564697,0.7528076,0.4963989,1.1332397,0.7197266
		c0.4467163,0.2811279,0.8934326,0.5458984,1.3483887,0.8023682c0.4384155,0.2647705,0.8850708,0.5127563,1.3400269,0.7446289
		c0.0166016,0.0163574,0.0331421,0.0246582,0.0579224,0.0328979c0.3805542,0.2067871,0.7610474,0.3970337,1.1415405,0.5955811
		c0.1737061,0.0827637,0.3557129,0.173645,0.5377197,0.2564697c0.2977905,0.1571045,0.6038208,0.2979126,0.9099121,0.4301758
		c0.1323242,0.0662231,0.2647095,0.1324463,0.3970337,0.1902466c0.3970947,0.1819458,0.8023682,0.3638916,1.2077026,0.5212402
		c0.0083008,0.0082397,0.0165405,0.0163574,0.0248413,0.0163574c0.4136353,0.1821289,0.8272095,0.3475342,1.2490845,0.5129395
		c0.2315674,0.0910645,0.4714355,0.1737061,0.703125,0.2647705c0.421875,0.1571045,0.84375,0.3059692,1.2738647,0.4550171
		c0.3887939,0.140564,0.7858276,0.2728271,1.1828613,0.3887329c0.4963989,0.1654053,1.0009766,0.31427,1.5055542,0.4550171
		c0.4384155,0.1322632,0.8850708,0.2479858,1.3317871,0.3556519c0.3060913,0.0825806,0.6121216,0.1571045,0.9265137,0.2233276
		c0.3391113,0.0908813,0.6947632,0.1654053,1.0421753,0.2397461c0.4384766,0.0993652,0.8768311,0.1821289,1.3236084,0.2647705
		c0.454895,0.0910645,0.9181519,0.1654053,1.3814087,0.2398682c0.3970337,0.0662842,0.8023682,0.1242065,1.2077026,0.1737061
		c0.6617432,0.0910645,1.3317871,0.1738892,2.0100708,0.2316284c0.5459595,0.0579834,1.1002197,0.0993652,1.6544189,0.1325073
		c1.1084595,0.0742798,2.2251587,0.1074219,3.3418579,0.1074219c1.1333008,0,2.2665405-0.0413818,3.3916016-0.1074219
		c0.6286011-0.0413818,1.2573242-0.0993652,1.8859863-0.1655884c0.5541992-0.0578003,1.1084595-0.1240234,1.6544189-0.1985474
		c0.5459595-0.0743408,1.0918579-0.1571045,1.6295776-0.2481689c0.7362061-0.1157227,1.4724121-0.2562866,2.2086182-0.4216919
		c0.3887939-0.0745239,0.7692871-0.1655884,1.1498413-0.2564697c0.1240234-0.0248413,0.2481079-0.0579834,0.3721924-0.0911255
		c0.4467163-0.1074219,0.8933716-0.2233276,1.3318481-0.3473511c0.0496216-0.0083008,0.0992432-0.0248413,0.1488647-0.0413818
		c0.5128784-0.1322632,1.0174561-0.2811279,1.5137939-0.4467163c0.0082397,0.0082397,0.0165405,0,0.0247803-0.0083008
		c0.5377197-0.1571045,1.0753784-0.3308105,1.6047974-0.5210571c0.4466553-0.1488037,0.8933716-0.3143921,1.3317871-0.4880981
		c0.3308716-0.1157227,0.6617432-0.24823,0.9926147-0.3887329c0.1571655-0.0496826,0.3060913-0.1157227,0.4632568-0.1820068
		c0.2895508-0.1159058,0.5707397-0.2399292,0.8520508-0.3638916c0.2729492-0.1159058,0.5458984-0.2316284,0.8106079-0.355835
		c0.3970337-0.1820068,0.8023682-0.3639526,1.1911621-0.562439c0.4963379-0.2316284,0.984375-0.4796753,1.4724121-0.7444458
		c0.4384766-0.2233276,0.8685913-0.4549561,1.2904663-0.703186c0.1157837-0.0579224,0.2398682-0.1239624,0.3557129-0.1984863
		c0.2977905-0.1654053,0.5955811-0.3391113,0.8768311-0.5130005c0.2647095-0.1571045,0.5293579-0.314209,0.7858276-0.4796143
		c0.1737061-0.107666,0.3474121-0.2150879,0.5211182-0.3309937c0.2481689-0.1571655,0.4963379-0.31427,0.7445068-0.487915
		c0.3143311-0.1985474,0.6121216-0.4053345,0.9181519-0.6204224c0.1075439-0.0662231,0.2068481-0.140564,0.3060913-0.2150879
		c0.2978516-0.2067871,0.5955811-0.4135742,0.8851318-0.6369629c0.2977295-0.2150879,0.5872803-0.4301758,0.8768311-0.6618042
		c0.0909424-0.0742798,0.1902466-0.140564,0.28125-0.2233276c0.281189-0.2068481,0.5541992-0.4301758,0.8272095-0.6616211
		c0.281189-0.2233887,0.5625-0.4550171,0.8354492-0.6949463c0.0247803-0.0165405,0.0496216-0.0413818,0.0744629-0.0579224
		c0.4052734-0.3391113,0.8023682-0.6947632,1.1911621-1.0505981c0.0165405-0.0082397,0.0248413-0.0248413,0.0330811-0.0330811
		c0.3804932-0.3391113,0.7527466-0.6864624,1.1166992-1.0422974c0.1075439-0.1074219,0.2068481-0.2067871,0.3060913-0.3059692
		c0.2647095-0.2481689,0.5294189-0.5129395,0.7775879-0.7775269c0.1654053-0.1655884,0.3225708-0.3309937,0.4714966-0.4963989
		c0.281189-0.281311,0.5458984-0.5707397,0.8106079-0.8685913c0.0166016-0.0165405,0.0330811-0.0413818,0.0496826-0.0579834
		c0.3391724-0.3638916,0.6699829-0.7443848,0.9926147-1.1248779c0.0827026-0.0910645,0.1571655-0.1902466,0.2316284-0.281311
		c0.3143311-0.3556519,0.6121216-0.7195435,0.8933716-1.0834961c0.3391724-0.4301147,0.6782837-0.8685913,1.0174561-1.3153076
		c0.0082397-0.0165405,0.0165405-0.0330811,0.0248413-0.0496826c0.0082397-0.0082397,0.0165405-0.0082397,0.0165405-0.0165405
		c0.6617432-0.876709,1.2904053-1.7866821,1.8859863-2.7132568c0.0083008-0.0165405,0.0248413-0.0331421,0.0248413-0.0496826
		c0.1158447-0.1654053,0.2233276-0.3390503,0.3226318-0.5127563c0.1819458-0.2893677,0.3474121-0.5872803,0.5293579-0.8851318
		C267.3710327,112.1603394,267.2634888,112.0940552,267.1311035,112.0195312z"/>
	<path class="st2" d="M223.1901245,97.6097412c0.3226318,0,0.6369629-0.0082397,0.951355-0.0248413h0.0744019
		c0.3143311-0.0165405,0.6204224-0.0413818,0.9182129-0.0744629c0.3391724-0.032959,0.6783447-0.0743408,1.0091553-0.1240234
		c0.3060913-0.0496826,0.6204224-0.0993652,0.9182129-0.1654053c0.9595947-0.1902466,1.8942871-0.4632568,2.8041992-0.7940674
		c0.2895508-0.0993652,0.5790405-0.2150879,0.8602905-0.3392944c0.0744629-0.0328979,0.1571655-0.06604,0.2316284-0.0991821
		c0.2150879-0.0910645,0.4384766-0.1902466,0.6535034-0.2978516c0.1488647-0.0743408,0.2977905-0.1488647,0.4384155-0.2233887
		c0.2894897-0.1488037,0.5707397-0.2976685,0.84375-0.4630737c0.0247803-0.0082397,0.0496216-0.0248413,0.0661621-0.0413818
		c0.28125-0.1573486,0.5542603-0.3227539,0.8189087-0.5046997c0.0413818-0.0165405,0.0827637-0.0411987,0.1158447-0.0742798
		c0.2977295-0.1902466,0.5872803-0.3970947,0.8685303-0.6123657c0.0165405-0.0080566,0.0331421-0.0245972,0.0496216-0.0328979
		c0.28125-0.2067871,0.5542603-0.421875,0.8189697-0.6452637c0.2729492-0.2316284,0.5541992-0.4797974,0.8189087-0.7280273
		c0.2729492-0.2396851,0.5294189-0.5044556,0.7775879-0.7692261c0.2647095-0.2647705,0.5128784-0.5375977,0.736145-0.8189087
		c0.24823-0.2813721,0.4797974-0.562439,0.6866455-0.8520508c0.0413208-0.0496826,0.0827026-0.1074829,0.1323853-0.1571045
		c0.140564-0.1820068,0.2728882-0.3722534,0.4052734-0.5707397c0-0.0083008,0.0083008-0.0083008,0.0083008-0.0165405
		c0.0496216-0.0745239,0.1075439-0.1490479,0.1571655-0.2233887c0.1075439-0.1571045,0.2150269-0.3227539,0.3143311-0.4963989
		c0.0165405-0.0165405,0.0247803-0.0331421,0.0330811-0.0496826c0.1654663-0.2562866,0.3226318-0.5210571,0.4714966-0.7940674
		c0.0744629-0.1157227,0.140625-0.2399292,0.1985474-0.3639526c0.0661621-0.1157227,0.1240845-0.2399292,0.1902466-0.3638916
		c0.0165405-0.0248413,0.0248413-0.0579834,0.0413208-0.0828247c0.0827637-0.173645,0.1654663-0.3473511,0.24823-0.5292969
		c0.0827026-0.1573486,0.1488647-0.3227539,0.2232666-0.4881592c0.0248413-0.0496826,0.0414429-0.1074219,0.0662231-0.1571045
		c0.1075439-0.2564697,0.2067871-0.5210571,0.3060303-0.7857666c0.1075439-0.2979126,0.2150879-0.5955811,0.3060913-0.9017334
		c0.0992432-0.3061523,0.1820068-0.6121216,0.2647095-0.9180908c0.0744629-0.3061523,0.1488647-0.6123047,0.2150879-0.9265747
		v-0.0330811c0.0661621-0.3059692,0.1240845-0.6287231,0.1737061-0.9429321
		c0.0330811-0.2399292,0.0661621-0.4715576,0.0910034-0.7114868c0.0164795-0.1240234,0.0330811-0.2564697,0.0413208-0.3804932
		c0.0330811-0.3226929,0.0579224-0.6535034,0.0662231-0.984314c0.0164795-0.2896118,0.0247803-0.5872803,0.0247803-0.8768921
		c0-0.140564,0-0.2730103-0.0083008-0.4135742c-0.2150269-10.5302734-8.8510132-19.0256348-19.4309692-19.0256348
		c-0.3143311,0-0.6203613,0.0082397-0.9264526,0.0248413c-0.6203613,0.0248413-1.2407837,0.0825806-1.8446045,0.173645
		c-0.1571655,0.0166016-0.3143311,0.0413818-0.4715576,0.0745239c-0.03302,0-0.0661621,0.0083008-0.0909424,0.0165405
		c-0.4384766,0.0743408-0.8685913,0.1571655-1.2904663,0.2645874c-1.0092163,0.24823-1.9852905,0.5707397-2.9282837,0.9679565
		c-0.5459595,0.2316284-1.0836792,0.487915-1.5964966,0.7692261c-0.4632568,0.24823-0.9099121,0.5130005-1.3483276,0.7941284
		c-0.0827026,0.0496826-0.1654663,0.1074219-0.2481689,0.1653442c-0.2564697,0.1654053-0.5045776,0.3392944-0.7527466,0.5213013
		c-0.2481689,0.1819458-0.4880371,0.3721924-0.7279053,0.5706787c-0.2399292,0.1819458-0.4715576,0.3804932-0.6948853,0.5872803
		c-0.2316284,0.2067871-0.4632568,0.4136353-0.6783447,0.6369629c-0.2232666,0.2150879-0.4383545,0.4301758-0.6452026,0.6618042
		c-0.0413208,0.0413818-0.0827026,0.0825806-0.1157837,0.1240234c-0.5708008,0.6203613-1.1002197,1.2821655-1.5799561,1.9771118
		c-0.0165405,0.0165405-0.0248413,0.0328979-0.0330811,0.0494995c-0.1571655,0.215271-0.2977905,0.4301147-0.4384155,0.6535034
		c-0.1903076,0.2978516-0.3722534,0.6038208-0.5459595,0.9099731c-0.1323242,0.2399292-0.2647095,0.4798584-0.3887939,0.7278442
		c-0.0992432,0.1987305-0.1984863,0.4055176-0.2895508,0.6123657c-0.0827026,0.1654053-0.1571655,0.3307495-0.2232666,0.4961548
		c-0.0248413,0.0414429-0.0496826,0.0911255-0.0662231,0.1488647c-0.0579224,0.1325073-0.1075439,0.2564697-0.1571655,0.3889771
		c-0.0496216,0.1322632-0.0992432,0.2645264-0.1488647,0.3970337c-0.1158447,0.2976685-0.2150879,0.59552-0.3060913,0.9014893
		c-0.0496216,0.1490479-0.0992432,0.3061523-0.140625,0.4633179c-0.0496826,0.1488037-0.0827026,0.2976685-0.1240845,0.4549561
		c-0.1323853,0.4631348-0.2316284,0.9429321-0.3143311,1.4227905c-0.0248413,0.1571045-0.0496216,0.3225098-0.0744629,0.4798584
		c-0.0744629,0.4216919-0.1323242,0.8518066-0.1654053,1.2902832c-0.0248413,0.1902466-0.0331421,0.3806763-0.0413818,0.5709229
		c-0.0165405,0.2396851-0.0248413,0.4796143-0.0330811,0.7278442c-0.0083008,0.140564-0.0083008,0.2730103-0.0083008,0.4135742
		C203.7509155,88.8910522,212.4696655,97.6097412,223.1901245,97.6097412z"/>
	<path class="st2" d="M171.4983521,85.1686401c-0.0083008,0.1490479-0.0083008,0.2978516-0.0083008,0.4467163
		c0,9.1571655,2.4072266,18.0990601,6.9898682,25.9574585c10.687439-6.7581787,22.6157227-11.0927124,35.081604-12.7967529
		c-0.0247803-0.0083008-0.0496216-0.0248413-0.0744019-0.032959c-0.0496826-0.0248413-0.0993042-0.0413818-0.140625-0.0662231
		c-0.3557129-0.173645-0.703186-0.355835-1.0422974-0.5375977c-7.0643311-3.8631592-11.8620605-11.3740234-11.8620605-19.96875
		c0-0.1159058,0-0.2316284,0.0082397-0.3390503c0.0083008-0.3887939,0.0248413-0.7694702,0.0496216-1.1582031
		c0.0166016-0.3391113,0.0496826-0.6781616,0.0910034-1.0174561c0.0331421-0.3391113,0.0827637-0.670105,0.1323853-1.0009155
		c0-0.0248413,0.0083008-0.0496826,0.0083008-0.0745239c0.0578613-0.3473511,0.1240234-0.6947021,0.1984863-1.0422363
		c0.0413818-0.1820068,0.0744019-0.3639526,0.1240845-0.5458984c0.0413818-0.1819458,0.0827026-0.3639526,0.1323242-0.5458984
		c0.0496826-0.1821289,0.0993042-0.3638916,0.1489258-0.5460815c0.0496216-0.1819458,0.0992432-0.3638916,0.1571655-0.5375977
		c0.0910034-0.2896118,0.1902466-0.5789795,0.2894897-0.8602905c0.0248413-0.0828247,0.0496216-0.1654053,0.0827637-0.24823
		c0.1240234-0.3308105,0.2564087-0.6533203,0.3970337-0.984314c0.0496216-0.1240234,0.1075439-0.2481689,0.1571655-0.3638916
		c0.0827026-0.1820068,0.1654663-0.3641357,0.2564087-0.5458984c0.0827026-0.1738892,0.1654663-0.3475952,0.2481689-0.5129395
		c0.0744629-0.1488647,0.1571655-0.2979126,0.2316284-0.4384766c0.1075439-0.1984863,0.2233276-0.3970337,0.3391724-0.5955811
		c0.1157837-0.2067871,0.2316284-0.4052734,0.3556519-0.6038208c0.1903076-0.3144531,0.388855-0.6121216,0.5956421-0.9099731
		c0.2067871-0.2977295,0.4135742-0.5955811,0.6369019-0.8768921c0.2316284-0.3059692,0.4714966-0.6038818,0.7114258-0.8932495
		c0.2067871-0.2399292,0.4136353-0.4798584,0.6204224-0.7114868c0.4301147-0.4632568,0.8685303-0.9014893,1.3234863-1.3234253
		c0.2233887-0.2067871,0.4466553-0.4052734,0.6700439-0.59552c0.9760742-0.84375,2.0349121-1.6049194,3.1516113-2.2667236
		c0.2895508-0.1737061,0.5873413-0.3473511,0.8851318-0.5045166c0.28125-0.1571045,0.5707397-0.2978516,0.8602905-0.4384155
		c0.1157837-0.0662231,0.2398682-0.1157227,0.3639526-0.1737061c0.2481689-0.1157227,0.4963379-0.2233276,0.7527466-0.3309937
		c0.2730103-0.1157227,0.5459595-0.2233276,0.8189697-0.3225098c0.4135742-0.1571045,0.8271484-0.3059692,1.2490845-0.4301758
		c0.3556519-0.1074219,0.703064-0.2067871,1.0670166-0.3059692c0.0083008,0,0.0083008,0,0.0083008,0
		c0.3557129-0.0910645,0.7196655-0.173645,1.0919189-0.2481689c0.3143311-0.0662231,0.6369629-0.1242065,0.9595337-0.1737061
		c0.1323853-0.0248413,0.2564087-0.0413818,0.3805542-0.0579224c0.2977295-0.0414429,0.59552-0.0745239,0.8933716-0.1074829
		c0.7527466-0.0745239,1.5220337-0.1159058,2.2995605-0.1159058c12.4246216,0,22.5578003,10.017334,22.7398071,22.4006958
		c0.0082397,0.1157227,0.0082397,0.2314453,0.0082397,0.3473511c0,0.2564697-0.0082397,0.5129395-0.0164795,0.7692261
		c0,0.2067871-0.0165405,0.4136353-0.0248413,0.6121216c-0.0165405,0.3061523-0.0413818,0.6121216-0.0744629,0.9100342
		c-0.0330811,0.3721924-0.0827026,0.7443848-0.140625,1.1167603c-0.0579224,0.3722534-0.1158447,0.736145-0.1902466,1.1000977
		c-0.0579224,0.2647095-0.1158447,0.5212402-0.1737061,0.77771c-0.0496216,0.2231445-0.1075439,0.4464722-0.1737061,0.6615601
		c-0.1240845,0.4798584-0.2647095,0.9431152-0.4301758,1.4064331c-0.0744629,0.2314453-0.1571655,0.4630737-0.2481079,0.6864624
		c-0.0827637,0.2316284-0.1737671,0.4549561-0.2647095,0.6783447c-0.1323853,0.3059692-0.2647095,0.6121216-0.4136353,0.9180908
		c-0.0248413,0.0662231-0.0579224,0.1324463-0.0992432,0.2067871c-0.1323853,0.281311-0.2730103,0.5626221-0.421875,0.84375
		c-0.0165405,0.0248413-0.0248413,0.0496826-0.0413818,0.0745239c-0.1157837,0.2150879-0.2399292,0.4301758-0.3722534,0.6535034
		c-0.1240845,0.2233887-0.2564087,0.4301758-0.3887939,0.6452637c-0.1323242,0.2150879-0.2729492,0.421875-0.4135742,0.6286621
		s-0.28125,0.4136353-0.4301147,0.6121216c-0.140686,0.1985474-0.2895508,0.3970337-0.4467163,0.5955811
		c-0.1571655,0.1984863-0.3143311,0.3887329-0.4714966,0.5872803c-0.3143311,0.3804932-0.6535034,0.7443848-0.9926147,1.1085205
		c-0.1737671,0.173645-0.3391724,0.3556519-0.5128784,0.5292969c-0.0662231,0.0662842-0.140686,0.1242065-0.1985474,0.1902466
		c-0.2233276,0.2233887-0.4632568,0.4384766-0.703125,0.6535034c-0.2315674,0.2150879-0.4797974,0.421936-0.7196655,0.6287231
		c-0.1654663,0.1322632-0.3308716,0.2647705-0.5045776,0.3970337c-0.6700439,0.5210571-1.3731689,1.0174561-2.1011353,1.4558716
		c-0.3804932,0.2316284-0.7527466,0.4467163-1.1497803,0.6618042c-0.0248413,0.0083008-0.0578613,0.0248413-0.0827026,0.0411987
		c12.4493408,1.1333618,24.5182495,4.8806152,35.3959351,11.0266724c0.0082397-0.0165405,0.0165405-0.0331421,0.0247803-0.0496826
		c0.4632568-0.9015503,0.9016724-1.8115234,1.3153076-2.737915c0.4053345-0.9182739,0.7857666-1.8612061,1.1415405-2.8043213
		c0-0.0082397,0.0082397-0.0248413,0.0082397-0.0328979c0.1902466-0.5129395,0.3722534-1.0259399,0.5376587-1.5386963
		c0.1241455-0.3309937,0.2316895-0.6618042,0.3309326-1.0008545c0.0744019-0.2233887,0.140625-0.4467163,0.2150269-0.6784058
		c0.1158447-0.3887329,0.2233276-0.7774658,0.3308716-1.1745605c0.1241455-0.4549561,0.2481689-0.9016724,0.3557129-1.3566895
		c0.140625-0.5541382,0.2647095-1.1165771,0.3805542-1.6792603c0.1075439-0.487915,0.1984863-0.9760132,0.2894897-1.4639282
		c0.1820068-1.0176392,0.3391724-2.043396,0.4549561-3.0773926c0.0661621-0.4962158,0.1157837-1.0008545,0.1654663-1.5053711
		c0.0496216-0.5791626,0.0909424-1.1664429,0.1240845-1.7537231c0.0247803-0.3722534,0.0413208-0.7526855,0.0496216-1.1333618
		c0.0247803-0.5790405,0.0330811-1.15802,0.0330811-1.7453003c0-0.1571045,0-0.3061523-0.0083008-0.4633179
		c-0.2398682-28.2902222-23.3435669-51.2367554-51.6918335-51.2367554c-0.5128174,0-1.0256958,0.0082397-1.5302734,0.0248413
		c-0.4880981,0.0082397-0.9760742,0.0330811-1.4641724,0.06604c-0.0661621,0-0.140625,0-0.2067871,0.0084839
		c-0.3639526,0.0245972-0.7279663,0.0494385-1.0919189,0.0825806c-0.1902466,0.0082397-0.3804932,0.0248413-0.5790405,0.0496826
		c-0.3391113,0.0248413-0.6782837,0.06604-1.0174561,0.1074219c-1.5799561,0.1738892-3.1433716,0.421875-4.673645,0.7446289
		c-0.4550171,0.0991211-0.9016724,0.1984863-1.3483276,0.3059082c-0.421875,0.0911255-0.8355103,0.1985474-1.2490845,0.3062134
		c-0.3970947,0.1074219-0.7858887,0.2150879-1.1746216,0.3307495c-0.3060913,0.0828247-0.6038818,0.1737061-0.9016724,0.2730713
		c-0.0330811,0-0.0662231,0.0083008-0.0992432,0.0248413c-0.388855,0.1157227-0.7610474,0.2399292-1.1415405,0.3721924
		c-0.3474121,0.1157227-0.6948853,0.2316284-1.0422974,0.3639526c-0.4466553,0.1572876-0.8851318,0.3226929-1.3234863,0.4963989
		c-0.7775879,0.3059082-1.546875,0.6286621-2.3079224,0.9760132c-0.2977905,0.1240234-0.5955811,0.2647705-0.8933716,0.4135742
		c-0.4880981,0.2233887-0.9760742,0.4633179-1.4558716,0.7114868c-0.3143311,0.1571655-0.6204224,0.3225708-0.9264526,0.487915
		c-1.5882568,0.8520508-3.1351318,1.7869263-4.6158447,2.8043823c-0.3474121,0.2316284-0.6865845,0.4715576-1.0256958,0.7112427
		c-0.28125,0.2067871-0.5625,0.4136353-0.84375,0.6286621c-0.2894897,0.2068481-0.5708008,0.421936-0.8519897,0.6452637
		c-0.3060913,0.2316284-0.6038818,0.4715576-0.9016724,0.7114868c-0.7445068,0.6121216-1.4724121,1.2490845-2.1838379,1.9024048
		c-0.2894897,0.2564697-0.5707397,0.5212402-0.8519897,0.7943115c-0.3805542,0.3555908-0.7528076,0.7195435-1.1167603,1.0917358
		c-0.3060303,0.3061523-0.6038208,0.6204224-0.8933105,0.9348145c-0.2233887,0.2316895-0.4384766,0.4713745-0.6535645,0.7113037
		c-0.1902466,0.2067871-0.3804321,0.4135742-0.562439,0.6286621c-0.2730103,0.3144531-0.5376587,0.6287231-0.8023682,0.9431152
		c-0.2647095,0.31427-0.5294189,0.6369629-0.7858887,0.9595337c-0.5045776,0.6452026-1.0092163,1.2987061-1.4889526,1.968811
		c-0.9595947,1.3482666-1.8612061,2.7297974-2.6966553,4.1608276c-0.1737671,0.2977295-0.3391724,0.5955811-0.5045776,0.8932495
		c-0.2399292,0.4467163-0.4880981,0.8934326-0.7196655,1.34021c-0.2316284,0.4464722-0.4632568,0.9014893-0.6783447,1.3565063
		c-0.1737061,0.3473511-0.3391724,0.703186-0.4963379,1.0588379c-0.173645,0.3804932-0.3391113,0.7692261-0.5045776,1.1582031
		c-0.1654663,0.3885498-0.3308716,0.7775269-0.4797974,1.1662598c-0.1571655,0.3887939-0.3060303,0.7775269-0.4466553,1.1745605
		c-0.140625,0.3887939-0.2894897,0.7858276-0.421875,1.1828613c-0.1323242,0.3970337-0.2647095,0.7940674-0.3887939,1.199585
		c-0.0082397,0.0166016-0.0165405,0.0331421-0.0165405,0.0578003c-0.2067871,0.6452026-0.3970337,1.2904663-0.5707397,1.9439697
		c-0.0662231,0.2647705-0.1323853,0.5210571-0.1985474,0.7858276c-0.0827637,0.3061523-0.1488647,0.6121216-0.2233887,0.9265137
		c-0.0992432,0.4136353-0.1984863,0.8355103-0.2729492,1.2572021c-0.0993042,0.4549561-0.1819458,0.9182739-0.2646484,1.3815308
		c-0.0662231,0.3556519-0.1323853,0.7114868-0.1820068,1.0671387c-0.0662231,0.4135742-0.1241455,0.8189087-0.1820068,1.2407837
		C171.6638184,80.9168701,171.5148926,83.0263062,171.4983521,85.1686401z"/>
	<path d="M168.2805176,82.4140015c-0.0247803,0.4135742-0.0413208,0.8272095-0.0579224,1.2492676
		c-0.0164795,0.4796143-0.0247803,0.9677734-0.0330811,1.4475708c-0.0082397,0.1654053-0.0082397,0.3391113-0.0082397,0.5045166
		c0,9.8024292,2.5891113,19.3646851,7.5192871,27.7609253l-0.0166016,0.0165405l0.4301758,0.6864624l0.421875,0.6866455
		c10.1332397,16.1883545,27.5706177,25.8583374,46.6541138,25.8583374c0.6204224,0,1.2408447-0.0083008,1.8612061-0.0331421
		c0.5956421-0.0165405,1.1829224-0.0496826,1.7785034-0.0908813c0.8519897-0.0496826,1.6958008-0.1325073,2.53125-0.2316284
		c0.3226318-0.0248413,0.6369629-0.0662842,0.9512329-0.107666c0.3309326-0.0411987,0.670105-0.0908813,1.0009766-0.1488037
		c0.2564087-0.0331421,0.5045776-0.0662842,0.7527466-0.1157227c0.3721924-0.0579834,0.7444458-0.1242065,1.1166992-0.1987305
		c0.1489258-0.0166016,0.2977905-0.0494995,0.4467163-0.0826416c0.4797363-0.0910645,0.9595337-0.1901855,1.43927-0.2978516
		c0.0827637-0.0165405,0.1737671-0.0331421,0.24823-0.0577393c0.3887329-0.0828247,0.7775879-0.1737061,1.15802-0.2730713
		c0.2647705-0.0579224,0.52948-0.1239624,0.7858887-0.1984863c0.3804932-0.0993652,0.7527466-0.2068481,1.125-0.3144531
		c0.0744629-0.0166016,0.140625-0.0331421,0.2067871-0.0578003c0.4631958-0.1324463,0.9182129-0.2730103,1.3731689-0.421875
		c0.1819458-0.0579224,0.3639526-0.1159058,0.5376587-0.1819458c0.3639526-0.1159058,0.7279053-0.2399292,1.0836182-0.3641357
		c0.1489258-0.0494385,0.3060913-0.1074219,0.4550171-0.1654053c0.3970337-0.1405029,0.7857666-0.2895508,1.1746216-0.4467163
		c0.7526855-0.2893677,1.4889526-0.59552,2.2251587-0.9263306c0.3308716-0.1488647,0.6617432-0.2979126,0.9926758-0.4467163
		c2.0513916-0.9594727,4.0449219-2.0431519,5.9640503-3.2508545c0.2978516-0.1821899,0.5956421-0.3723755,0.8851318-0.5707397
		c0.3804932-0.2399292,0.7527466-0.4880981,1.125-0.7528687c0.3557129-0.2399292,0.6948242-0.4798584,1.0422363-0.736145
		c0.4301758-0.3061523,0.8603516-0.6203613,1.2821655-0.9596558c0.24823-0.1819458,0.4963379-0.3721924,0.7362061-0.5789795
		c0.2150879-0.1571655,0.4301758-0.3308105,0.6369629-0.5130005c0.2977905-0.2314453,0.5955811-0.4796143,0.8851318-0.736084
		c0.1240234-0.0991821,0.2398682-0.1985474,0.3557129-0.31427c0.3556519-0.2978516,0.7113647-0.6203613,1.0587769-0.9431152
		c0.0496216-0.0413818,0.0992432-0.0825806,0.140625-0.1322632c0.3474121-0.3144531,0.6865845-0.6369629,1.0257568-0.9677734
		c0.1157837-0.107666,0.2315674-0.215271,0.3391113-0.3309937c0.2647095-0.2647705,0.5294189-0.5210571,0.7941284-0.7940674
		c0.1737671-0.1820068,0.3557129-0.3639526,0.5211792-0.5541992c0.2894897-0.3061523,0.5707397-0.6121216,0.8519897-0.9265137
		c0.3887939-0.421936,0.7610474-0.8520508,1.1332397-1.2905273c0,0,0.0083008-0.0082397,0.0083008-0.0163574
		c0.3639526-0.4301758,0.7196655-0.8602905,1.0670776-1.2987671c0.0082397-0.0082397,0.0165405-0.0165405,0.0165405-0.0248413
		c0.7114258-0.8934326,1.3979492-1.8115234,2.0515137-2.7546387c0.3308105-0.4713745,0.6534424-0.9511719,0.9677734-1.4393311
		c0.6700439-1.0256958,1.3070068-2.0679932,1.9025879-3.1351318l0.1240845-0.2233276l0.6617432-1.1911011l-0.0165405-0.0083008
		c0.0082397-0.0165405,0.0165405-0.0331421,0.0248413-0.0496826c0.5294189-1.0256958,1.0339966-2.0679932,1.4971924-3.1266479
		c0.1323242-0.2978516,0.2647095-0.5957642,0.3804932-0.8934326c0.0993042-0.2150879,0.1903076-0.4384766,0.28125-0.6618042
		c0.0166016-0.0331421,0.0248413-0.0745239,0.0413818-0.107666c0.3639526-0.9014893,0.703125-1.8115234,1.0175171-2.737854
		c0.173645-0.5130005,0.3473511-1.0422974,0.5045776-1.5635376c0.1654053-0.5210571,0.3143311-1.050354,0.4631958-1.579895
		c0.1489258-0.52948,0.28125-1.0670776,0.4136353-1.5964355c0.2647095-1.0671387,0.4962769-2.1425171,0.6865845-3.2261963
		c0.0992432-0.5375977,0.1902466-1.0836792,0.2729492-1.6295776c0.0744629-0.4715576,0.1323242-0.9429321,0.1984863-1.4227295
		c0.0083008-0.0828247,0.0165405-0.1654053,0.0331421-0.24823c0.0579224-0.5375977,0.1157837-1.0668945,0.1654053-1.6047363
		c0.0413818-0.5046387,0.0827026-1.017395,0.1157837-1.5220947c0.0414429-0.628479,0.0662231-1.2573853,0.0827637-1.8777466
		c0.0165405-0.5210571,0.0247803-1.0339966,0.0247803-1.5550537c0-0.1571045,0-0.31427-0.0082397-0.4633179
		c-0.2481689-30.1182861-24.8242798-54.5455933-55.0006714-54.5455933c-0.59552,0-1.1911621,0.0083008-1.7784424,0.0331421
		c-0.0910034,0-0.1737061,0-0.2481689,0.0082397c-0.4880371,0.0166016-0.9678345,0.0414429-1.4476318,0.0745239
		c-0.0992432,0-0.1984863,0.0081177-0.2977905,0.0163574c-0.5375977,0.0331421-1.0836182,0.0745239-1.6212769,0.1325073
		c-0.5542603,0.0494995-1.1084595,0.1157227-1.6543579,0.1902466c-0.2316895,0.0248413-0.4632568,0.0579224-0.6866455,0.0908813
		c-0.421875,0.0579224-0.8354492,0.1159058-1.2490234,0.1904297c-0.0579224,0.0080566-0.1075439,0.0163574-0.1654663,0.0246582
		c-0.5625,0.0993652-1.1333008,0.1984863-1.6957397,0.3144531c-1.0340576,0.2067871-2.0514526,0.4384155-3.0606689,0.7112427
		c-0.2564697,0.0579834-0.5128784,0.1242065-0.7610474,0.1985474c-0.3887939,0.107605-0.7775269,0.2233276-1.1580811,0.3392334
		c-0.0744019,0.0166016-0.1488647,0.0411987-0.2233276,0.0662842c-0.5542603,0.1654053-1.1001587,0.3473511-1.6378784,0.5292969
		c-0.5541992,0.1902466-1.1083984,0.3887939-1.6544189,0.5955811c-0.4797363,0.173645-0.9595337,0.3638916-1.4310303,0.562439
		c-1.2407837,0.4963989-2.4567261,1.0505371-3.6397095,1.6461182c-0.3887329,0.1902466-0.7775879,0.3889771-1.15802,0.5957642
		c-0.5625,0.2893677-1.1167603,0.5872803-1.6627197,0.9014893c-0.4962769,0.2896118-0.9926147,0.5872803-1.4806519,0.8851929
		c-0.4053955,0.2481689-0.8024292,0.4962158-1.1994629,0.7609253c-0.2150879,0.1323242-0.4301758,0.2730713-0.6369629,0.421936
		c-0.4135742,0.2730103-0.8272095,0.5541382-1.2325439,0.84375c-0.4135742,0.2896118-0.8189087,0.5872803-1.2160034,0.8934326
		c-0.4549561,0.3308105-0.8933105,0.6781616-1.3317871,1.0339966c-0.0247803,0.0083008-0.0413208,0.0246582-0.0578613,0.0496826
		c-0.3804932,0.2976685-0.7610474,0.6119385-1.1333008,0.9346313c-0.4383545,0.3556519-0.8602295,0.736145-1.2821655,1.1168213
		c-0.2729492,0.2396851-0.5376587,0.4796143-0.7941284,0.7278442c-0.1074829,0.0993652-0.2067871,0.1902466-0.3060303,0.2896118
		c-0.1985474,0.1819458-0.3887939,0.3721924-0.5789795,0.562439c-0.8272095,0.8023071-1.6213379,1.6295166-2.3823853,2.4898682
		c-0.2647095,0.2811279-0.5128174,0.562439-0.7610474,0.8520508c-0.1240234,0.140564-0.2398682,0.2811279-0.3557129,0.421875
		c-0.2728882,0.314209-0.5375977,0.6369629-0.7940674,0.9594727c-0.6782837,0.8272095-1.3235474,1.6709595-1.9439697,2.5395508
		c-0.1901855,0.2730713-0.3887329,0.5541992-0.5790405,0.8355103c-0.2315674,0.3225098-0.4466553,0.6452026-0.6534424,0.9760132
		c-0.3226318,0.4633179-0.6204224,0.9431152-0.9182129,1.4227905c-0.4549561,0.7445679-0.8933716,1.4972534-1.3152466,2.2582397
		c-0.1075439,0.1819458-0.2067871,0.3641357-0.2977905,0.5458374c-0.1654663,0.2896118-0.3226318,0.5957642-0.4714966,0.8934937
		c-0.2730103,0.52948-0.5376587,1.0670776-0.7858887,1.6046753c-0.0164795,0.0331421-0.03302,0.0662842-0.0496216,0.0993652
		c-0.2564087,0.5458984-0.5045776,1.09198-0.7444458,1.6461182c-0.1488647,0.3391113-0.2895508,0.6866455-0.4301758,1.0257568
		c-0.1074829,0.2564697-0.2150269,0.5210571-0.3143311,0.7857666c-0.1240845,0.3144531-0.2398682,0.6369629-0.3639526,0.9679565
		c-0.0744019,0.2068481-0.1488647,0.4136353-0.2233887,0.628479c-0.0744019,0.215332-0.1488647,0.4301758-0.2232666,0.6369629
		c-0.140686,0.4301758-0.281311,0.8520508-0.4136353,1.2822266c-0.140625,0.4301758-0.2647095,0.8685913-0.3887939,1.2987671
		c-0.0661621,0.2233887-0.1240234,0.4384155-0.1819458,0.6535034c-0.0662231,0.2233887-0.1158447,0.4467163-0.1737671,0.6618042
		c-0.2729492,1.0588379-0.5211182,2.1340332-0.7362061,3.2260132c-0.0827026,0.4301758-0.1654053,0.8685913-0.2398682,1.3070679
		c-0.0247803,0.1571045-0.0496216,0.314209-0.0827026,0.4796143c-0.1571655,1.0093994-0.2977905,2.0267944-0.3970947,3.0525513
		c-0.0496216,0.4052734-0.0827026,0.8106079-0.1157837,1.2242432c-0.0330811,0.3804321-0.0578613,0.7609253-0.0827026,1.1414185
		C168.2888184,82.3148193,168.2805176,82.364502,168.2805176,82.4140015z M266.6430664,113.6242676
		c0,0.0165405-0.0165405,0.0331421-0.0248413,0.0496826c-0.5955811,0.9265747-1.2242432,1.8365479-1.8859863,2.7132568
		c0,0.0083008-0.0083008,0.0083008-0.0165405,0.0165405c-0.0083008,0.0166016-0.0166016,0.0331421-0.0248413,0.0496826
		c-0.3391724,0.4467163-0.6782837,0.8851929-1.0174561,1.3153076c-0.28125,0.3639526-0.5790405,0.7278442-0.8933716,1.0834961
		c-0.0744629,0.0910645-0.1489258,0.1902466-0.2316284,0.281311c-0.3226318,0.3804932-0.6534424,0.7609863-0.9926147,1.1248779
		c-0.0166016,0.0166016-0.0330811,0.0414429-0.0496826,0.0579834c-0.2647095,0.2978516-0.5294189,0.5872803-0.8106079,0.8685913
		c-0.1489258,0.1654053-0.3060913,0.3308105-0.4714966,0.4963989c-0.2481689,0.2645874-0.5128784,0.5293579-0.7775879,0.7775269
		c-0.0992432,0.0991821-0.1985474,0.1985474-0.3060913,0.3059692c-0.3639526,0.355835-0.7362061,0.703186-1.1166992,1.0422974
		c-0.0082397,0.0082397-0.0165405,0.0248413-0.0330811,0.0330811c-0.3887939,0.355835-0.7858887,0.7114868-1.1911621,1.0505981
		c-0.0248413,0.0165405-0.0496826,0.0413818-0.0744629,0.0579224c-0.2729492,0.2399292-0.5542603,0.4715576-0.8354492,0.6949463
		c-0.2730103,0.2314453-0.5460205,0.4547729-0.8272095,0.6616211c-0.0910034,0.0827637-0.1903076,0.1490479-0.28125,0.2233276
		c-0.2895508,0.2316284-0.5791016,0.4467163-0.8768311,0.6618042c-0.2895508,0.2233887-0.5872803,0.4301758-0.8851318,0.6369629
		c-0.0992432,0.0745239-0.1985474,0.1488647-0.3060913,0.2150879c-0.3060303,0.2150879-0.6038208,0.421875-0.9181519,0.6204224
		c-0.2481689,0.173645-0.4963379,0.3307495-0.7445068,0.487915c-0.1737061,0.1159058-0.3474121,0.2233276-0.5211182,0.3309937
		c-0.2564697,0.1654053-0.5211182,0.3225098-0.7858276,0.4796143c-0.28125,0.1738892-0.5790405,0.3475952-0.8768311,0.5130005
		c-0.1158447,0.0745239-0.2399292,0.140564-0.3557129,0.1984863c-0.421875,0.24823-0.8519897,0.4798584-1.2904663,0.703186
		c-0.4880371,0.2647705-0.9760742,0.5128174-1.4724121,0.7444458c-0.3887939,0.1984863-0.7941284,0.3804321-1.1911621,0.562439
		c-0.2647095,0.1242065-0.5376587,0.2399292-0.8106079,0.355835c-0.281311,0.1239624-0.5625,0.2479858-0.8520508,0.3638916
		c-0.1571655,0.0662842-0.3060913,0.1323242-0.4632568,0.1820068c-0.3308716,0.1405029-0.6617432,0.2730103-0.9926147,0.3887329
		c-0.4384155,0.1737061-0.8851318,0.3392944-1.3317871,0.4880981c-0.5294189,0.1902466-1.0670776,0.3639526-1.6047974,0.5210571
		c-0.0082397,0.0083008-0.0165405,0.0165405-0.0247803,0.0083008c-0.4963379,0.1655884-1.0009155,0.3144531-1.5137939,0.4467163
		c-0.0496216,0.0165405-0.0992432,0.0330811-0.1488647,0.0413818c-0.4384766,0.1240234-0.8851318,0.2399292-1.3318481,0.3473511
		c-0.1240845,0.0331421-0.2481689,0.0662842-0.3721924,0.0911255c-0.3805542,0.0908813-0.7610474,0.1819458-1.1498413,0.2564697
		c-0.7362061,0.1654053-1.4724121,0.3059692-2.2086182,0.4216919c-0.5377197,0.0910645-1.0836182,0.1738281-1.6295776,0.2481689
		c-0.5459595,0.0745239-1.1002197,0.1407471-1.6544189,0.1985474c-0.6286621,0.0662231-1.2573853,0.1242065-1.8859863,0.1655884
		c-1.125061,0.06604-2.2583008,0.1074219-3.3916016,0.1074219c-1.1166992,0-2.2333984-0.0331421-3.3418579-0.1074219
		c-0.5541992-0.0331421-1.1084595-0.0745239-1.6544189-0.1325073c-0.6782837-0.0577393-1.3483276-0.140564-2.0100708-0.2316284
		c-0.4053345-0.0494995-0.8106689-0.1074219-1.2077026-0.1737061c-0.4632568-0.0744629-0.9265137-0.1488037-1.3814087-0.2398682
		c-0.4467773-0.0826416-0.8851318-0.1654053-1.3236084-0.2647705c-0.3474121-0.0743408-0.703064-0.1488647-1.0421753-0.2397461
		c-0.3143921-0.0662231-0.6204224-0.1407471-0.9265137-0.2233276c-0.4467163-0.107666-0.8933716-0.2233887-1.3317871-0.3556519
		c-0.5045776-0.1407471-1.0091553-0.2896118-1.5055542-0.4550171c-0.3970337-0.1159058-0.7940674-0.2481689-1.1828613-0.3887329
		c-0.4301147-0.1490479-0.8519897-0.2979126-1.2738647-0.4550171c-0.2316895-0.0910645-0.4715576-0.1737061-0.703125-0.2647705
		c-0.421875-0.1654053-0.8354492-0.3308105-1.2490845-0.5129395c-0.0083008,0-0.0165405-0.0081177-0.0248413-0.0163574
		c-0.4053345-0.1573486-0.8106079-0.3392944-1.2077026-0.5212402c-0.1323242-0.0578003-0.2647095-0.1240234-0.3970337-0.1902466
		c-0.3060913-0.1322632-0.6121216-0.2730713-0.9099121-0.4301758c-0.1820068-0.0828247-0.3640137-0.1737061-0.5377197-0.2564697
		c-0.3804932-0.1985474-0.7609863-0.3887939-1.1415405-0.5955811c-0.0247803-0.0082397-0.0413208-0.0165405-0.0579224-0.0328979
		c-0.4549561-0.2318726-0.9016113-0.4798584-1.3400269-0.7446289c-0.4549561-0.2564697-0.9016724-0.5212402-1.3483887-0.8023682
		c-0.3804321-0.2233276-0.7609863-0.4632568-1.1332397-0.7197266c-0.1488647-0.0908813-0.2977905-0.1902466-0.4466553-0.2894287
		c-0.3474121-0.2316284-0.6948853-0.4632568-1.0339966-0.7114868c-0.4301758-0.2976685-0.8520508-0.6121216-1.2738647-0.9263306
		c-0.4136353-0.3144531-0.8272095-0.6286621-1.2408447-0.9597168c-0.4135742-0.3225098-0.8189697-0.6533203-1.2160034-1.0008545
		c-0.3970337-0.3308105-0.7941284-0.6783447-1.1828613-1.0422974c-0.3805542-0.3308105-0.7445068-0.6781616-1.1085205-1.0339966
		c-0.0744019-0.0662231-0.140564-0.1322632-0.2150269-0.2067871c-0.3143311-0.2894287-0.6203613-0.5955811-0.9182129-0.90979
		c-0.4549561-0.4715576-0.9099121-0.951416-1.3565674-1.4393311c-0.2895508-0.3144531-0.5708008-0.6204224-0.8355103-0.9431152
		c-0.3556519-0.4136353-0.7113647-0.8355103-1.0588379-1.265625c-0.2894897-0.3556519-0.5790405-0.7113037-0.843689-1.0754395
		c-0.0248413-0.0328979-0.0579224-0.0743408-0.0827637-0.1074219c-0.0165405-0.0248413-0.0413208-0.0496826-0.0579224-0.0745239
		c-0.0164795-0.0248413-0.03302-0.0413818-0.0496216-0.06604c-0.3143311-0.3970337-0.6121216-0.8025513-0.8933105-1.2161865
		c-0.3226318-0.4299316-0.6287231-0.8684082-0.9099731-1.3151245c0.0165405-0.0082397,0.0248413-0.0165405,0.0413818-0.0248413
		c0.1157837-0.0745239,0.2398682-0.1488037,0.3556519-0.2233276c13.4834595-8.4291382,29.0099487-12.8713379,45.0411377-12.8713379
		c14.5504761,0,28.8362427,3.7141724,41.4593506,10.7619019c0.1323853,0.0745239,0.2399292,0.1408081,0.3639526,0.2068481
		c-0.1819458,0.2978516-0.3474121,0.5957642-0.5293579,0.8851318
		C266.866394,113.2852173,266.7589111,113.4588623,266.6430664,113.6242676z M203.7509155,78.1705322
		c0-0.140564,0-0.2730103,0.0083008-0.4135742c0.0082397-0.24823,0.0165405-0.4881592,0.0330811-0.7278442
		c0.0082397-0.1902466,0.0165405-0.3806763,0.0413818-0.5709229c0.0330811-0.4384766,0.0909424-0.8685913,0.1654053-1.2902832
		c0.0248413-0.1573486,0.0496216-0.3227539,0.0744629-0.4798584c0.0827026-0.4798584,0.1819458-0.9596558,0.3143311-1.4227905
		c0.0413818-0.1572876,0.0744019-0.3061523,0.1240845-0.4549561c0.0413818-0.1571655,0.0910034-0.31427,0.140625-0.4633179
		c0.0910034-0.3059692,0.1902466-0.6038208,0.3060913-0.9014893c0.0496216-0.1325073,0.0992432-0.2647705,0.1488647-0.3970337
		c0.0496216-0.1325073,0.0992432-0.2564697,0.1571655-0.3889771c0.0165405-0.0577393,0.0413818-0.1074219,0.0662231-0.1488647
		c0.0661011-0.1654053,0.140564-0.3307495,0.2232666-0.4961548c0.0910645-0.2068481,0.1903076-0.4136353,0.2895508-0.6123657
		c0.1240845-0.2479858,0.2564697-0.487915,0.3887939-0.7278442c0.1737061-0.3061523,0.3556519-0.6121216,0.5459595-0.9099731
		c0.140625-0.2233887,0.28125-0.4382324,0.4384155-0.6535034c0.0082397-0.0166016,0.0165405-0.032959,0.0330811-0.0494995
		c0.4797363-0.6949463,1.0091553-1.3567505,1.5799561-1.9771118c0.0330811-0.0414429,0.0744629-0.0826416,0.1157837-0.1240234
		c0.2068481-0.2316284,0.421936-0.4467163,0.6452026-0.6618042c0.2150879-0.2233276,0.4467163-0.4301758,0.6783447-0.6369629
		c0.2233276-0.2067871,0.4549561-0.4053345,0.6948853-0.5872803c0.2398682-0.1984863,0.4797363-0.3887329,0.7279053-0.5706787
		c0.2481689-0.1820068,0.4962769-0.355896,0.7527466-0.5213013c0.0827026-0.0579224,0.1654663-0.1156616,0.2481689-0.1653442
		c0.4384155-0.2811279,0.8850708-0.5458984,1.3483276-0.7941284c0.5128174-0.281311,1.0505371-0.5375977,1.5964966-0.7692261
		c0.9429932-0.3972168,1.9190674-0.7197266,2.9282837-0.9679565c0.421875-0.1074219,0.8519897-0.1902466,1.2904663-0.2645874
		c0.0247803-0.0082397,0.0579224-0.0165405,0.0909424-0.0165405c0.1572266-0.0331421,0.3143921-0.0579224,0.4715576-0.0745239
		c0.6038208-0.0910645,1.2242432-0.1488037,1.8446045-0.173645c0.3060913-0.0166016,0.6121216-0.0248413,0.9264526-0.0248413
		c10.5799561,0,19.2159424,8.4953613,19.4309692,19.0256348c0.0083008,0.140564,0.0083008,0.2730103,0.0083008,0.4135742
		c0,0.2896118-0.0083008,0.5872803-0.0247803,0.8768921c-0.0083008,0.3308105-0.0331421,0.6616211-0.0662231,0.984314
		c-0.0082397,0.1240234-0.0248413,0.2564697-0.0413208,0.3804932c-0.0248413,0.2399292-0.0579224,0.4715576-0.0910034,0.7114868
		c-0.0496216,0.314209-0.1075439,0.6369629-0.1737061,0.9429321v0.0330811
		c-0.0662231,0.31427-0.140625,0.6204224-0.2150879,0.9265747c-0.0827026,0.3059692-0.1654663,0.6119385-0.2647095,0.9180908
		c-0.0910034,0.3061523-0.1985474,0.6038208-0.3060913,0.9017334c-0.0992432,0.2647095-0.1984863,0.5292969-0.3060303,0.7857666
		c-0.0247803,0.0496826-0.0413818,0.1074219-0.0662231,0.1571045c-0.0744019,0.1654053-0.140564,0.3308105-0.2232666,0.4881592
		c-0.0827637,0.1819458-0.1654663,0.3556519-0.24823,0.5292969c-0.0164795,0.0248413-0.0247803,0.0579834-0.0413208,0.0828247
		c-0.0661621,0.1239624-0.1240845,0.2481689-0.1902466,0.3638916c-0.0579224,0.1240234-0.1240845,0.24823-0.1985474,0.3639526
		c-0.1488647,0.2730103-0.3060303,0.5377808-0.4714966,0.7940674c-0.0083008,0.0165405-0.0165405,0.0331421-0.0330811,0.0496826
		c-0.0993042,0.173645-0.2067871,0.3392944-0.3143311,0.4963989c-0.0496216,0.0743408-0.1075439,0.1488647-0.1571655,0.2233887
		c0,0.0082397-0.0083008,0.0082397-0.0083008,0.0165405c-0.1323853,0.1984863-0.2647095,0.3887329-0.4052734,0.5707397
		c-0.0496826,0.0496216-0.0910645,0.1074219-0.1323853,0.1571045c-0.2068481,0.2896118-0.4384155,0.5706787-0.6866455,0.8520508
		c-0.2232666,0.281311-0.4714355,0.5541382-0.736145,0.8189087c-0.2481689,0.2647705-0.5046387,0.529541-0.7775879,0.7692261
		c-0.2647095,0.24823-0.5459595,0.4963989-0.8189087,0.7280273c-0.2647095,0.2233887-0.5377197,0.4384766-0.8189697,0.6452637
		c-0.0164795,0.0083008-0.0330811,0.0248413-0.0496216,0.0328979c-0.28125,0.215271-0.5708008,0.4221191-0.8685303,0.6123657
		c-0.0330811,0.0330811-0.0744629,0.0577393-0.1158447,0.0742798c-0.2646484,0.1819458-0.5376587,0.3473511-0.8189087,0.5046997
		c-0.0165405,0.0165405-0.0413818,0.0331421-0.0661621,0.0413818c-0.2730103,0.1654053-0.5542603,0.31427-0.84375,0.4630737
		c-0.140625,0.0745239-0.2895508,0.1490479-0.4384155,0.2233887c-0.2150269,0.107605-0.4384155,0.2067871-0.6535034,0.2978516
		c-0.0744629,0.0331421-0.1571655,0.0662842-0.2316284,0.0991821c-0.28125,0.1242065-0.5707397,0.2399292-0.8602905,0.3392944
		c-0.9099121,0.3308105-1.8446045,0.6038208-2.8041992,0.7940674c-0.2977905,0.06604-0.6121216,0.1157227-0.9182129,0.1654053
		c-0.3308105,0.0496826-0.6699829,0.0910645-1.0091553,0.1240234c-0.2977905,0.0330811-0.6038818,0.0579224-0.9182129,0.0744629
		h-0.0744019c-0.3143921,0.0166016-0.6287231,0.0248413-0.951355,0.0248413
		C212.4696655,97.6097412,203.7509155,88.8910522,203.7509155,78.1705322z M171.9367676,78.848877
		c0.0578613-0.421875,0.1157837-0.8272095,0.1820068-1.2407837c0.0496216-0.3556519,0.1157837-0.7114868,0.1820068-1.0671387
		c0.0827026-0.4632568,0.1653442-0.9265747,0.2646484-1.3815308c0.0744629-0.4216919,0.1737061-0.8435669,0.2729492-1.2572021
		c0.0745239-0.3143921,0.140625-0.6203613,0.2233887-0.9265137c0.0661621-0.2647705,0.1323242-0.5210571,0.1985474-0.7858276
		c0.1737061-0.6535034,0.3639526-1.2987671,0.5707397-1.9439697c0-0.0246582,0.0083008-0.0411987,0.0165405-0.0578003
		c0.1240845-0.4055176,0.2564697-0.8025513,0.3887939-1.199585c0.1323853-0.3970337,0.28125-0.7940674,0.421875-1.1828613
		c0.140625-0.3970337,0.2894897-0.7857666,0.4466553-1.1745605c0.1489258-0.3887329,0.3143311-0.77771,0.4797974-1.1662598
		c0.1654663-0.3889771,0.3309326-0.77771,0.5045776-1.1582031c0.1571655-0.3556519,0.3226318-0.7114868,0.4963379-1.0588379
		c0.2150879-0.4550171,0.4467163-0.9100342,0.6783447-1.3565063c0.2315674-0.4467773,0.4797363-0.8934937,0.7196655-1.34021
		c0.1654053-0.2976685,0.3308105-0.59552,0.5045776-0.8932495c0.8354492-1.4310303,1.7370605-2.812561,2.6966553-4.1608276
		c0.4797363-0.670105,0.984375-1.3236084,1.4889526-1.968811c0.2564697-0.3225708,0.5211792-0.6452637,0.7858887-0.9595337
		c0.2647095-0.3143921,0.5293579-0.6286621,0.8023682-0.9431152c0.1820068-0.2150879,0.3721924-0.421875,0.562439-0.6286621
		c0.2150879-0.2399292,0.4301758-0.4796143,0.6535645-0.7113037c0.2894897-0.3143921,0.5872803-0.6286621,0.8933105-0.9348145
		c0.3639526-0.3721924,0.7362061-0.736145,1.1167603-1.0917358c0.28125-0.2730713,0.5625-0.5378418,0.8519897-0.7943115
		c0.7114258-0.6533203,1.4393311-1.2902832,2.1838379-1.9024048c0.2977905-0.2399292,0.5955811-0.4798584,0.9016724-0.7114868
		c0.281189-0.2233276,0.5625-0.4384155,0.8519897-0.6452637c0.28125-0.2150269,0.5625-0.421875,0.84375-0.6286621
		c0.3391113-0.2396851,0.6782837-0.4796143,1.0256958-0.7112427c1.4807129-1.0174561,3.0275879-1.9523315,4.6158447-2.8043823
		c0.3060303-0.1653442,0.6121216-0.3307495,0.9264526-0.487915c0.4797974-0.2481689,0.9677734-0.4880981,1.4558716-0.7114868
		c0.2977905-0.1488037,0.5955811-0.2895508,0.8933716-0.4135742c0.7610474-0.3473511,1.5303345-0.670105,2.3079224-0.9760132
		c0.4383545-0.1737061,0.8768311-0.3391113,1.3234863-0.4963989c0.3474121-0.1323242,0.6948853-0.24823,1.0422974-0.3639526
		c0.3804932-0.1322632,0.7526855-0.2564697,1.1415405-0.3721924c0.03302-0.0165405,0.0661621-0.0248413,0.0992432-0.0248413
		c0.2977905-0.0993652,0.5955811-0.1902466,0.9016724-0.2730713c0.3887329-0.1156616,0.7775269-0.2233276,1.1746216-0.3307495
		c0.4135742-0.107666,0.8272095-0.2150879,1.2490845-0.3062134c0.4466553-0.1074219,0.8933105-0.2067871,1.3483276-0.3059082
		c1.5302734-0.3227539,3.093689-0.5707397,4.673645-0.7446289c0.3391724-0.0413818,0.6783447-0.0825806,1.0174561-0.1074219
		c0.1985474-0.0248413,0.3887939-0.0414429,0.5790405-0.0496826c0.3639526-0.0331421,0.7279663-0.0579834,1.0919189-0.0825806
		c0.0661621-0.0084839,0.140625-0.0084839,0.2067871-0.0084839c0.4880981-0.032959,0.9760742-0.0578003,1.4641724-0.06604
		c0.5045776-0.0166016,1.0174561-0.0248413,1.5302734-0.0248413c28.3482666,0,51.4519653,22.9465332,51.6918335,51.2367554
		c0.0083008,0.1571655,0.0083008,0.3062134,0.0083008,0.4633179c0,0.5872803-0.0083008,1.1662598-0.0330811,1.7453003
		c-0.0083008,0.3806763-0.0248413,0.7611084-0.0496216,1.1333618c-0.0331421,0.5872803-0.0744629,1.1745605-0.1240845,1.7537231
		c-0.0496826,0.5045166-0.0993042,1.0091553-0.1654663,1.5053711c-0.1157837,1.0339966-0.2729492,2.0597534-0.4549561,3.0773926
		c-0.0910034,0.487915-0.1819458,0.9760132-0.2894897,1.4639282c-0.1158447,0.5626831-0.2399292,1.1251221-0.3805542,1.6792603
		c-0.1075439,0.4550171-0.2315674,0.9017334-0.3557129,1.3566895c-0.1075439,0.3970947-0.2150269,0.7858276-0.3308716,1.1745605
		c-0.0744019,0.2316895-0.140625,0.4550171-0.2150269,0.6784058c-0.0992432,0.3390503-0.2067871,0.6698608-0.3309326,1.0008545
		c-0.1654053,0.5127563-0.3474121,1.0257568-0.5376587,1.5386963c0,0.0080566-0.0082397,0.0246582-0.0082397,0.0328979
		c-0.3557739,0.9431152-0.7362061,1.8860474-1.1415405,2.8043213c-0.4136353,0.9263916-0.8520508,1.8363647-1.3153076,2.737915
		c-0.0082397,0.0165405-0.0165405,0.0331421-0.0247803,0.0496826c-10.8776855-6.1460571-22.9465942-9.8933105-35.3959351-11.0266724
		c0.0248413-0.0163574,0.0578613-0.0328979,0.0827026-0.0411987c0.3970337-0.2150879,0.7692871-0.4301758,1.1497803-0.6618042
		c0.7279663-0.4384155,1.4310913-0.9348145,2.1011353-1.4558716c0.1737061-0.1322632,0.3391113-0.2647705,0.5045776-0.3970337
		c0.2398682-0.2067871,0.4880981-0.4136353,0.7196655-0.6287231c0.2398682-0.2150269,0.4797974-0.4301147,0.703125-0.6535034
		c0.0578613-0.06604,0.1323242-0.1239624,0.1985474-0.1902466c0.1737061-0.173645,0.3391113-0.3556519,0.5128784-0.5292969
		c0.3391113-0.3641357,0.6782837-0.7280273,0.9926147-1.1085205c0.1571655-0.1985474,0.3143311-0.3887939,0.4714966-0.5872803
		c0.1571655-0.1985474,0.3060303-0.3970337,0.4467163-0.5955811c0.1488647-0.1984863,0.2894897-0.4053345,0.4301147-0.6121216
		s0.28125-0.4135742,0.4135742-0.6286621c0.1323853-0.2150879,0.2647095-0.421875,0.3887939-0.6452637
		c0.1323242-0.2233276,0.2564697-0.4384155,0.3722534-0.6535034c0.0165405-0.0248413,0.0248413-0.0496826,0.0413818-0.0745239
		c0.1488647-0.2811279,0.2894897-0.562439,0.421875-0.84375c0.0413208-0.0743408,0.0744019-0.140564,0.0992432-0.2067871
		c0.1489258-0.3059692,0.28125-0.6121216,0.4136353-0.9180908c0.0909424-0.2233887,0.1819458-0.4467163,0.2647095-0.6783447
		c0.0909424-0.2233887,0.173645-0.4550171,0.2481079-0.6864624c0.1654663-0.4633179,0.3060913-0.9265747,0.4301758-1.4064331
		c0.0661621-0.2150879,0.1240845-0.4384155,0.1737061-0.6615601c0.0578613-0.2564697,0.1157837-0.5130005,0.1737061-0.77771
		c0.0744019-0.3639526,0.1323242-0.7278442,0.1902466-1.1000977c0.0579224-0.3723755,0.1075439-0.7445679,0.140625-1.1167603
		c0.0330811-0.2979126,0.0579224-0.6038818,0.0744629-0.9100342c0.0083008-0.1984863,0.0248413-0.4053345,0.0248413-0.6121216
		c0.0082397-0.2562866,0.0164795-0.5127563,0.0164795-0.7692261c0-0.1159058,0-0.2316284-0.0082397-0.3473511
		c-0.1820068-12.3833618-10.3151855-22.4006958-22.7398071-22.4006958c-0.7775269,0-1.546814,0.0413818-2.2995605,0.1159058
		c-0.2978516,0.032959-0.5956421,0.06604-0.8933716,0.1074829c-0.1241455,0.0165405-0.2481689,0.0330811-0.3805542,0.0579224
		c-0.3225708,0.0494995-0.6452026,0.1074829-0.9595337,0.1737061c-0.3722534,0.0745239-0.7362061,0.1571045-1.0919189,0.2481689
		c0,0,0,0-0.0083008,0c-0.3639526,0.0991821-0.7113647,0.1985474-1.0670166,0.3059692
		c-0.421936,0.1242065-0.8355103,0.2730713-1.2490845,0.4301758c-0.2730103,0.0991821-0.5459595,0.2067871-0.8189697,0.3225098
		c-0.2564087,0.107666-0.5045776,0.215271-0.7527466,0.3309937c-0.1240845,0.0579834-0.2481689,0.1074829-0.3639526,0.1737061
		c-0.2895508,0.140564-0.5790405,0.281311-0.8602905,0.4384155c-0.2977905,0.1571655-0.5955811,0.3308105-0.8851318,0.5045166
		c-1.1166992,0.6618042-2.1755371,1.4229736-3.1516113,2.2667236c-0.2233887,0.1902466-0.4466553,0.3887329-0.6700439,0.59552
		c-0.4549561,0.421936-0.8933716,0.8601685-1.3234863,1.3234253c-0.2067871,0.2316284-0.4136353,0.4715576-0.6204224,0.7114868
		c-0.2399292,0.2893677-0.4797974,0.5872803-0.7114258,0.8932495c-0.2233276,0.281311-0.4301147,0.5791626-0.6369019,0.8768921
		c-0.2067871,0.2978516-0.4053345,0.59552-0.5956421,0.9099731c-0.1240234,0.1985474-0.2398682,0.3970337-0.3556519,0.6038208
		c-0.1158447,0.1985474-0.2316284,0.3970947-0.3391724,0.5955811c-0.0744629,0.140564-0.1571655,0.2896118-0.2316284,0.4384766
		c-0.0827026,0.1653442-0.1654663,0.3390503-0.2481689,0.5129395c-0.0909424,0.1817627-0.1737061,0.3638916-0.2564087,0.5458984
		c-0.0496216,0.1157227-0.1075439,0.2398682-0.1571655,0.3638916c-0.140625,0.3309937-0.2730103,0.6535034-0.3970337,0.984314
		c-0.0331421,0.0828247-0.0579224,0.1654053-0.0827637,0.24823c-0.0992432,0.281311-0.1984863,0.5706787-0.2894897,0.8602905
		c-0.0579224,0.1737061-0.1075439,0.3556519-0.1571655,0.5375977c-0.0496216,0.1821899-0.0992432,0.3639526-0.1489258,0.5460815
		c-0.0496216,0.1819458-0.0909424,0.3639526-0.1323242,0.5458984c-0.0496826,0.1819458-0.0827026,0.3638916-0.1240845,0.5458984
		c-0.0744629,0.3475342-0.140625,0.6948853-0.1984863,1.0422363c0,0.0248413-0.0083008,0.0496826-0.0083008,0.0745239
		c-0.0496216,0.3308105-0.0992432,0.6618042-0.1323853,1.0009155c-0.0413208,0.3392944-0.0744019,0.6783447-0.0910034,1.0174561
		c-0.0247803,0.3887329-0.0413208,0.7694092-0.0496216,1.1582031c-0.0082397,0.1074219-0.0082397,0.2231445-0.0082397,0.3390503
		c0,8.5947266,4.7977295,16.1055908,11.8620605,19.96875c0.3391113,0.1817627,0.6865845,0.3639526,1.0422974,0.5375977
		c0.0413208,0.0248413,0.0909424,0.0413818,0.140625,0.0662231c0.0247803,0.0081177,0.0496216,0.0246582,0.0744019,0.032959
		c-12.4658813,1.7040405-24.394165,6.0385742-35.081604,12.7967529c-4.5826416-7.8583984-6.9898682-16.800293-6.9898682-25.9574585
		c0-0.1488647,0-0.2976685,0.0083008-0.4467163C171.5148926,83.0263062,171.6638184,80.9168701,171.9367676,78.848877z"/>
	<path d="M295.5702515,44.6688843h69.4849243v-14.062439h-69.4849243V44.6688843z M361.7463989,41.3600464h-62.8673096v-7.4447632
		h62.8673096V41.3600464z"/>
	<path d="M295.5702515,67.8305054h69.4849243v-14.062439h-69.4849243V67.8305054z M361.7463989,57.0769043v7.4448242h-62.8673096
		v-7.4448242H361.7463989z"/>
	<path d="M295.5702515,90.9921265h69.4849243V76.9297485h-69.4849243V90.9921265z M361.7463989,80.2385254v7.4448242h-62.8673096
		v-7.4448242H361.7463989z"/>
	<path d="M365.0551758,100.0913696h-69.4849243v14.062439h69.4849243V100.0913696z M298.8790894,110.8449707v-7.4447632h62.8673096
		v7.4447632H298.8790894z"/>
	<path d="M295.5702515,123.2529907v14.062439h69.4849243v-14.062439H295.5702515z M361.7463989,134.0066528h-62.8673096v-7.4448242
		h62.8673096V134.0066528z"/>
</g>
</svg>
